<mxfile host="65bd71144e" pages="3">
    <diagram id="GeJfKxHU7BJvRRiopMuI" name="1-compose">
        <mxGraphModel dx="1190" dy="830" grid="1" gridSize="10" guides="1" tooltips="1" connect="1" arrows="1" fold="1" page="1" pageScale="1" pageWidth="1169" pageHeight="827" math="0" shadow="0">
            <root>
                <mxCell id="0"/>
                <mxCell id="1" parent="0"/>
                <mxCell id="MAluX0tYI-qD0DuKJMZw-1" value="Mindmap" style="swimlane;html=1;startSize=20;horizontal=1;containerType=tree;" parent="1" vertex="1">
                    <mxGeometry x="170" y="17" width="800" height="923" as="geometry"/>
                </mxCell>
                <mxCell id="MAluX0tYI-qD0DuKJMZw-2" value="" style="edgeStyle=entityRelationEdgeStyle;startArrow=none;endArrow=none;segment=10;curved=1;exitX=1;exitY=0.5;exitDx=0;exitDy=0;fontColor=#000000;" parent="MAluX0tYI-qD0DuKJMZw-1" source="MAluX0tYI-qD0DuKJMZw-109" target="MAluX0tYI-qD0DuKJMZw-7" edge="1">
                    <mxGeometry relative="1" as="geometry">
                        <mxPoint x="385" y="283.5" as="sourcePoint"/>
                    </mxGeometry>
                </mxCell>
                <mxCell id="MAluX0tYI-qD0DuKJMZw-6" value="OpenAM開発" style="ellipse;whiteSpace=wrap;html=1;align=center;treeFolding=1;treeMoving=1;newEdgeStyle={&quot;edgeStyle&quot;:&quot;entityRelationEdgeStyle&quot;,&quot;startArrow&quot;:&quot;none&quot;,&quot;endArrow&quot;:&quot;none&quot;,&quot;segment&quot;:10,&quot;curved&quot;:1};" parent="MAluX0tYI-qD0DuKJMZw-1" vertex="1">
                    <mxGeometry x="50" y="420" width="100" height="40" as="geometry"/>
                </mxCell>
                <mxCell id="MAluX0tYI-qD0DuKJMZw-7" value="OpenAM-1" style="whiteSpace=wrap;html=1;rounded=1;arcSize=50;align=center;verticalAlign=middle;strokeWidth=1;autosize=1;spacing=4;treeFolding=1;treeMoving=1;newEdgeStyle={&quot;edgeStyle&quot;:&quot;entityRelationEdgeStyle&quot;,&quot;startArrow&quot;:&quot;none&quot;,&quot;endArrow&quot;:&quot;none&quot;,&quot;segment&quot;:10,&quot;curved&quot;:1};fillColor=#dae8fc;strokeColor=#6c8ebf;fontColor=#000000;" parent="MAluX0tYI-qD0DuKJMZw-1" vertex="1">
                    <mxGeometry x="407.5" y="245.5" width="100" height="30" as="geometry"/>
                </mxCell>
                <mxCell id="MAluX0tYI-qD0DuKJMZw-11" value="OpenAM-2" style="whiteSpace=wrap;html=1;rounded=1;arcSize=50;align=center;verticalAlign=middle;strokeWidth=1;autosize=1;spacing=4;treeFolding=1;treeMoving=1;newEdgeStyle={&quot;edgeStyle&quot;:&quot;entityRelationEdgeStyle&quot;,&quot;startArrow&quot;:&quot;none&quot;,&quot;endArrow&quot;:&quot;none&quot;,&quot;segment&quot;:10,&quot;curved&quot;:1};fillColor=#dae8fc;strokeColor=#6c8ebf;fontColor=#000000;" parent="MAluX0tYI-qD0DuKJMZw-1" vertex="1">
                    <mxGeometry x="405" y="275.5" width="100" height="30" as="geometry"/>
                </mxCell>
                <mxCell id="MAluX0tYI-qD0DuKJMZw-12" value="" style="edgeStyle=entityRelationEdgeStyle;startArrow=none;endArrow=none;segment=10;curved=1;exitX=1;exitY=0.5;exitDx=0;exitDy=0;fontColor=#000000;" parent="MAluX0tYI-qD0DuKJMZw-1" source="MAluX0tYI-qD0DuKJMZw-109" target="MAluX0tYI-qD0DuKJMZw-11" edge="1">
                    <mxGeometry relative="1" as="geometry">
                        <mxPoint x="385" y="283.5" as="sourcePoint"/>
                        <mxPoint x="275" y="325.5" as="targetPoint"/>
                    </mxGeometry>
                </mxCell>
                <mxCell id="MAluX0tYI-qD0DuKJMZw-13" value="389DS" style="whiteSpace=wrap;html=1;rounded=1;arcSize=50;align=center;verticalAlign=middle;strokeWidth=1;autosize=1;spacing=4;treeFolding=1;treeMoving=1;newEdgeStyle={&quot;edgeStyle&quot;:&quot;entityRelationEdgeStyle&quot;,&quot;startArrow&quot;:&quot;none&quot;,&quot;endArrow&quot;:&quot;none&quot;,&quot;segment&quot;:10,&quot;curved&quot;:1};" parent="MAluX0tYI-qD0DuKJMZw-1" vertex="1">
                    <mxGeometry x="407.5" y="513" width="80" height="30" as="geometry"/>
                </mxCell>
                <mxCell id="MAluX0tYI-qD0DuKJMZw-14" value="" style="edgeStyle=entityRelationEdgeStyle;startArrow=none;endArrow=none;segment=10;curved=1;exitX=1;exitY=0.5;exitDx=0;exitDy=0;fontColor=#000000;" parent="MAluX0tYI-qD0DuKJMZw-1" source="MAluX0tYI-qD0DuKJMZw-115" target="MAluX0tYI-qD0DuKJMZw-13" edge="1">
                    <mxGeometry relative="1" as="geometry">
                        <mxPoint x="175" y="571" as="sourcePoint"/>
                        <mxPoint x="235" y="486" as="targetPoint"/>
                    </mxGeometry>
                </mxCell>
                <mxCell id="MAluX0tYI-qD0DuKJMZw-17" value="Tomcat" style="whiteSpace=wrap;html=1;rounded=1;arcSize=50;align=center;verticalAlign=middle;strokeWidth=1;autosize=1;spacing=4;treeFolding=1;treeMoving=1;newEdgeStyle={&quot;edgeStyle&quot;:&quot;entityRelationEdgeStyle&quot;,&quot;startArrow&quot;:&quot;none&quot;,&quot;endArrow&quot;:&quot;none&quot;,&quot;segment&quot;:10,&quot;curved&quot;:1};fillColor=#dae8fc;strokeColor=#6c8ebf;fontColor=#000000;" parent="MAluX0tYI-qD0DuKJMZw-1" vertex="1">
                    <mxGeometry x="580" y="228" width="80" height="30" as="geometry"/>
                </mxCell>
                <mxCell id="MAluX0tYI-qD0DuKJMZw-18" value="" style="edgeStyle=entityRelationEdgeStyle;startArrow=none;endArrow=none;segment=10;curved=1;fontColor=#000000;" parent="MAluX0tYI-qD0DuKJMZw-1" source="MAluX0tYI-qD0DuKJMZw-7" target="MAluX0tYI-qD0DuKJMZw-17" edge="1">
                    <mxGeometry relative="1" as="geometry">
                        <mxPoint x="375" y="325.5" as="sourcePoint"/>
                        <mxPoint x="425" y="295.5" as="targetPoint"/>
                    </mxGeometry>
                </mxCell>
                <mxCell id="MAluX0tYI-qD0DuKJMZw-19" value="Log switch control" style="whiteSpace=wrap;html=1;rounded=1;arcSize=50;align=center;verticalAlign=middle;strokeWidth=1;autosize=1;spacing=4;treeFolding=1;treeMoving=1;newEdgeStyle={&quot;edgeStyle&quot;:&quot;entityRelationEdgeStyle&quot;,&quot;startArrow&quot;:&quot;none&quot;,&quot;endArrow&quot;:&quot;none&quot;,&quot;segment&quot;:10,&quot;curved&quot;:1};" parent="MAluX0tYI-qD0DuKJMZw-1" vertex="1">
                    <mxGeometry x="397.5" y="353" width="140" height="30" as="geometry"/>
                </mxCell>
                <mxCell id="MAluX0tYI-qD0DuKJMZw-20" value="" style="edgeStyle=entityRelationEdgeStyle;startArrow=none;endArrow=none;segment=10;curved=1;exitX=1;exitY=0.5;exitDx=0;exitDy=0;fontColor=#000000;" parent="MAluX0tYI-qD0DuKJMZw-1" source="eAi3Z4oJkp1CK_27CIT8-8" target="MAluX0tYI-qD0DuKJMZw-19" edge="1">
                    <mxGeometry relative="1" as="geometry">
                        <mxPoint x="480" y="163" as="sourcePoint"/>
                        <mxPoint x="397.5" y="228" as="targetPoint"/>
                    </mxGeometry>
                </mxCell>
                <mxCell id="MAluX0tYI-qD0DuKJMZw-21" value="障害、リカバリ" style="whiteSpace=wrap;html=1;rounded=1;arcSize=50;align=center;verticalAlign=middle;strokeWidth=1;autosize=1;spacing=4;treeFolding=1;treeMoving=1;newEdgeStyle={&quot;edgeStyle&quot;:&quot;entityRelationEdgeStyle&quot;,&quot;startArrow&quot;:&quot;none&quot;,&quot;endArrow&quot;:&quot;none&quot;,&quot;segment&quot;:10,&quot;curved&quot;:1};fillColor=#f8cecc;strokeColor=#b85450;fontColor=#000000;" parent="MAluX0tYI-qD0DuKJMZw-1" vertex="1">
                    <mxGeometry x="575" y="258" width="120" height="30" as="geometry"/>
                </mxCell>
                <mxCell id="MAluX0tYI-qD0DuKJMZw-22" value="" style="edgeStyle=entityRelationEdgeStyle;startArrow=none;endArrow=none;segment=10;curved=1;fontColor=#000000;" parent="MAluX0tYI-qD0DuKJMZw-1" source="MAluX0tYI-qD0DuKJMZw-7" target="MAluX0tYI-qD0DuKJMZw-21" edge="1">
                    <mxGeometry relative="1" as="geometry">
                        <mxPoint x="375" y="325.5" as="sourcePoint"/>
                        <mxPoint x="425" y="355.5" as="targetPoint"/>
                    </mxGeometry>
                </mxCell>
                <mxCell id="MAluX0tYI-qD0DuKJMZw-31" value="Apache Agent" style="whiteSpace=wrap;html=1;rounded=1;arcSize=50;align=center;verticalAlign=middle;strokeWidth=1;autosize=1;spacing=4;treeFolding=1;treeMoving=1;newEdgeStyle={&quot;edgeStyle&quot;:&quot;entityRelationEdgeStyle&quot;,&quot;startArrow&quot;:&quot;none&quot;,&quot;endArrow&quot;:&quot;none&quot;,&quot;segment&quot;:10,&quot;curved&quot;:1};fillColor=#f8cecc;strokeColor=#b85450;fontColor=#000000;" parent="MAluX0tYI-qD0DuKJMZw-1" vertex="1">
                    <mxGeometry x="390" y="604" width="120" height="30" as="geometry"/>
                </mxCell>
                <mxCell id="MAluX0tYI-qD0DuKJMZw-32" value="" style="edgeStyle=entityRelationEdgeStyle;startArrow=none;endArrow=none;segment=10;curved=1;exitX=1;exitY=0.5;exitDx=0;exitDy=0;fontColor=#000000;" parent="MAluX0tYI-qD0DuKJMZw-1" source="MAluX0tYI-qD0DuKJMZw-119" target="MAluX0tYI-qD0DuKJMZw-31" edge="1">
                    <mxGeometry relative="1" as="geometry">
                        <mxPoint x="175" y="541" as="sourcePoint"/>
                        <mxPoint x="240" y="606" as="targetPoint"/>
                    </mxGeometry>
                </mxCell>
                <mxCell id="MAluX0tYI-qD0DuKJMZw-33" value="IIS Agent" style="whiteSpace=wrap;html=1;rounded=1;arcSize=50;align=center;verticalAlign=middle;strokeWidth=1;autosize=1;spacing=4;treeFolding=1;treeMoving=1;newEdgeStyle={&quot;edgeStyle&quot;:&quot;entityRelationEdgeStyle&quot;,&quot;startArrow&quot;:&quot;none&quot;,&quot;endArrow&quot;:&quot;none&quot;,&quot;segment&quot;:10,&quot;curved&quot;:1};" parent="MAluX0tYI-qD0DuKJMZw-1" vertex="1">
                    <mxGeometry x="405" y="634" width="90" height="30" as="geometry"/>
                </mxCell>
                <mxCell id="MAluX0tYI-qD0DuKJMZw-34" value="" style="edgeStyle=entityRelationEdgeStyle;startArrow=none;endArrow=none;segment=10;curved=1;exitX=1;exitY=0.5;exitDx=0;exitDy=0;fontColor=#000000;" parent="MAluX0tYI-qD0DuKJMZw-1" source="MAluX0tYI-qD0DuKJMZw-119" target="MAluX0tYI-qD0DuKJMZw-33" edge="1">
                    <mxGeometry relative="1" as="geometry">
                        <mxPoint x="175" y="541" as="sourcePoint"/>
                        <mxPoint x="245" y="596" as="targetPoint"/>
                    </mxGeometry>
                </mxCell>
                <mxCell id="MAluX0tYI-qD0DuKJMZw-35" value="Tomcat Agent" style="whiteSpace=wrap;html=1;rounded=1;arcSize=50;align=center;verticalAlign=middle;strokeWidth=1;autosize=1;spacing=4;treeFolding=1;treeMoving=1;newEdgeStyle={&quot;edgeStyle&quot;:&quot;entityRelationEdgeStyle&quot;,&quot;startArrow&quot;:&quot;none&quot;,&quot;endArrow&quot;:&quot;none&quot;,&quot;segment&quot;:10,&quot;curved&quot;:1};" parent="MAluX0tYI-qD0DuKJMZw-1" vertex="1">
                    <mxGeometry x="395" y="664" width="110" height="30" as="geometry"/>
                </mxCell>
                <mxCell id="MAluX0tYI-qD0DuKJMZw-36" value="" style="edgeStyle=entityRelationEdgeStyle;startArrow=none;endArrow=none;segment=10;curved=1;exitX=1;exitY=0.5;exitDx=0;exitDy=0;fontColor=#000000;" parent="MAluX0tYI-qD0DuKJMZw-1" source="MAluX0tYI-qD0DuKJMZw-119" target="MAluX0tYI-qD0DuKJMZw-35" edge="1">
                    <mxGeometry relative="1" as="geometry">
                        <mxPoint x="175" y="541" as="sourcePoint"/>
                        <mxPoint x="240" y="626" as="targetPoint"/>
                    </mxGeometry>
                </mxCell>
                <mxCell id="MAluX0tYI-qD0DuKJMZw-37" value="OpenLDAP" style="whiteSpace=wrap;html=1;rounded=1;arcSize=50;align=center;verticalAlign=middle;strokeWidth=1;autosize=1;spacing=4;treeFolding=1;treeMoving=1;newEdgeStyle={&quot;edgeStyle&quot;:&quot;entityRelationEdgeStyle&quot;,&quot;startArrow&quot;:&quot;none&quot;,&quot;endArrow&quot;:&quot;none&quot;,&quot;segment&quot;:10,&quot;curved&quot;:1};" parent="MAluX0tYI-qD0DuKJMZw-1" vertex="1">
                    <mxGeometry x="402.5" y="543" width="100" height="30" as="geometry"/>
                </mxCell>
                <mxCell id="MAluX0tYI-qD0DuKJMZw-38" value="" style="edgeStyle=entityRelationEdgeStyle;startArrow=none;endArrow=none;segment=10;curved=1;exitX=1;exitY=0.5;exitDx=0;exitDy=0;fontColor=#000000;" parent="MAluX0tYI-qD0DuKJMZw-1" source="MAluX0tYI-qD0DuKJMZw-115" target="MAluX0tYI-qD0DuKJMZw-37" edge="1">
                    <mxGeometry relative="1" as="geometry">
                        <mxPoint x="175" y="571" as="sourcePoint"/>
                        <mxPoint x="245" y="536" as="targetPoint"/>
                    </mxGeometry>
                </mxCell>
                <mxCell id="MAluX0tYI-qD0DuKJMZw-41" value="LB" style="whiteSpace=wrap;html=1;rounded=1;arcSize=50;align=center;verticalAlign=middle;strokeWidth=1;autosize=1;spacing=4;treeFolding=1;treeMoving=1;newEdgeStyle={&quot;edgeStyle&quot;:&quot;entityRelationEdgeStyle&quot;,&quot;startArrow&quot;:&quot;none&quot;,&quot;endArrow&quot;:&quot;none&quot;,&quot;segment&quot;:10,&quot;curved&quot;:1};fillColor=#dae8fc;strokeColor=#6c8ebf;fontColor=#000000;" parent="MAluX0tYI-qD0DuKJMZw-1" vertex="1">
                    <mxGeometry x="260" y="153" width="60" height="30" as="geometry"/>
                </mxCell>
                <mxCell id="MAluX0tYI-qD0DuKJMZw-42" value="" style="edgeStyle=entityRelationEdgeStyle;startArrow=none;endArrow=none;segment=10;curved=1;fontColor=#000000;" parent="MAluX0tYI-qD0DuKJMZw-1" source="MAluX0tYI-qD0DuKJMZw-6" target="MAluX0tYI-qD0DuKJMZw-41" edge="1">
                    <mxGeometry relative="1" as="geometry">
                        <mxPoint x="150" y="440" as="sourcePoint"/>
                        <mxPoint x="215" y="245" as="targetPoint"/>
                    </mxGeometry>
                </mxCell>
                <mxCell id="MAluX0tYI-qD0DuKJMZw-43" value="Admin" style="whiteSpace=wrap;html=1;rounded=1;arcSize=50;align=center;verticalAlign=middle;strokeWidth=1;autosize=1;spacing=4;treeFolding=1;treeMoving=1;newEdgeStyle={&quot;edgeStyle&quot;:&quot;entityRelationEdgeStyle&quot;,&quot;startArrow&quot;:&quot;none&quot;,&quot;endArrow&quot;:&quot;none&quot;,&quot;segment&quot;:10,&quot;curved&quot;:1};fillColor=#dae8fc;strokeColor=#6c8ebf;fontColor=#000000;" parent="MAluX0tYI-qD0DuKJMZw-1" vertex="1">
                    <mxGeometry x="250" y="65.5" width="70" height="30" as="geometry"/>
                </mxCell>
                <mxCell id="MAluX0tYI-qD0DuKJMZw-44" value="" style="edgeStyle=entityRelationEdgeStyle;startArrow=none;endArrow=none;segment=10;curved=1;fontColor=#000000;" parent="MAluX0tYI-qD0DuKJMZw-1" source="MAluX0tYI-qD0DuKJMZw-6" target="MAluX0tYI-qD0DuKJMZw-43" edge="1">
                    <mxGeometry relative="1" as="geometry">
                        <mxPoint x="150" y="440" as="sourcePoint"/>
                        <mxPoint x="225" y="215" as="targetPoint"/>
                    </mxGeometry>
                </mxCell>
                <mxCell id="MAluX0tYI-qD0DuKJMZw-49" value="OpenAM-SAML-SP" style="whiteSpace=wrap;html=1;rounded=1;arcSize=50;align=center;verticalAlign=middle;strokeWidth=1;autosize=1;spacing=4;treeFolding=1;treeMoving=1;newEdgeStyle={&quot;edgeStyle&quot;:&quot;entityRelationEdgeStyle&quot;,&quot;startArrow&quot;:&quot;none&quot;,&quot;endArrow&quot;:&quot;none&quot;,&quot;segment&quot;:10,&quot;curved&quot;:1};fillColor=#f8cecc;strokeColor=#b85450;fontColor=#000000;" parent="MAluX0tYI-qD0DuKJMZw-1" vertex="1">
                    <mxGeometry x="400" y="402.75" width="140" height="30" as="geometry"/>
                </mxCell>
                <mxCell id="MAluX0tYI-qD0DuKJMZw-50" value="" style="edgeStyle=entityRelationEdgeStyle;startArrow=none;endArrow=none;segment=10;curved=1;exitX=1;exitY=0.5;exitDx=0;exitDy=0;fontColor=#000000;" parent="MAluX0tYI-qD0DuKJMZw-1" source="MAluX0tYI-qD0DuKJMZw-113" target="MAluX0tYI-qD0DuKJMZw-49" edge="1">
                    <mxGeometry relative="1" as="geometry">
                        <mxPoint x="175" y="519.75" as="sourcePoint"/>
                        <mxPoint x="235" y="434.75" as="targetPoint"/>
                    </mxGeometry>
                </mxCell>
                <mxCell id="MAluX0tYI-qD0DuKJMZw-93" value="WordPress" style="whiteSpace=wrap;html=1;rounded=1;arcSize=50;align=center;verticalAlign=middle;strokeWidth=1;autosize=1;spacing=4;treeFolding=1;treeMoving=1;newEdgeStyle={&quot;edgeStyle&quot;:&quot;entityRelationEdgeStyle&quot;,&quot;startArrow&quot;:&quot;none&quot;,&quot;endArrow&quot;:&quot;none&quot;,&quot;segment&quot;:10,&quot;curved&quot;:1};" parent="MAluX0tYI-qD0DuKJMZw-1" vertex="1">
                    <mxGeometry x="402.5" y="713" width="100" height="30" as="geometry"/>
                </mxCell>
                <mxCell id="MAluX0tYI-qD0DuKJMZw-94" value="" style="edgeStyle=entityRelationEdgeStyle;startArrow=none;endArrow=none;segment=10;curved=1;exitX=1;exitY=0.5;exitDx=0;exitDy=0;fontColor=#000000;" parent="MAluX0tYI-qD0DuKJMZw-1" source="MAluX0tYI-qD0DuKJMZw-121" target="MAluX0tYI-qD0DuKJMZw-93" edge="1">
                    <mxGeometry relative="1" as="geometry">
                        <mxPoint x="175" y="541" as="sourcePoint"/>
                        <mxPoint x="230" y="776" as="targetPoint"/>
                    </mxGeometry>
                </mxCell>
                <mxCell id="MAluX0tYI-qD0DuKJMZw-97" value="" style="edgeStyle=entityRelationEdgeStyle;startArrow=none;endArrow=none;segment=10;curved=1;exitX=1;exitY=0.5;exitDx=0;exitDy=0;fontColor=#000000;" parent="MAluX0tYI-qD0DuKJMZw-1" source="MAluX0tYI-qD0DuKJMZw-43" target="MAluX0tYI-qD0DuKJMZw-98" edge="1">
                    <mxGeometry relative="1" as="geometry">
                        <mxPoint x="355" y="78" as="sourcePoint"/>
                        <mxPoint x="285" y="218" as="targetPoint"/>
                    </mxGeometry>
                </mxCell>
                <mxCell id="MAluX0tYI-qD0DuKJMZw-98" value="Portainer" style="whiteSpace=wrap;html=1;rounded=1;arcSize=50;align=center;verticalAlign=middle;strokeWidth=1;autosize=1;spacing=4;treeFolding=1;treeMoving=1;newEdgeStyle={&quot;edgeStyle&quot;:&quot;entityRelationEdgeStyle&quot;,&quot;startArrow&quot;:&quot;none&quot;,&quot;endArrow&quot;:&quot;none&quot;,&quot;segment&quot;:10,&quot;curved&quot;:1};fillColor=#dae8fc;strokeColor=#6c8ebf;fontColor=#000000;" parent="MAluX0tYI-qD0DuKJMZw-1" vertex="1">
                    <mxGeometry x="407.5" y="50.5" width="90" height="30" as="geometry"/>
                </mxCell>
                <mxCell id="MAluX0tYI-qD0DuKJMZw-101" value="" style="edgeStyle=entityRelationEdgeStyle;startArrow=none;endArrow=none;segment=10;curved=1;exitX=1;exitY=0.5;exitDx=0;exitDy=0;fontColor=#000000;" parent="MAluX0tYI-qD0DuKJMZw-1" source="MAluX0tYI-qD0DuKJMZw-43" target="MAluX0tYI-qD0DuKJMZw-102" edge="1">
                    <mxGeometry relative="1" as="geometry">
                        <mxPoint x="355" y="78" as="sourcePoint"/>
                        <mxPoint x="285" y="218" as="targetPoint"/>
                    </mxGeometry>
                </mxCell>
                <mxCell id="MAluX0tYI-qD0DuKJMZw-102" value="EFK" style="whiteSpace=wrap;html=1;rounded=1;arcSize=50;align=center;verticalAlign=middle;strokeWidth=1;autosize=1;spacing=4;treeFolding=1;treeMoving=1;newEdgeStyle={&quot;edgeStyle&quot;:&quot;entityRelationEdgeStyle&quot;,&quot;startArrow&quot;:&quot;none&quot;,&quot;endArrow&quot;:&quot;none&quot;,&quot;segment&quot;:10,&quot;curved&quot;:1};" parent="MAluX0tYI-qD0DuKJMZw-1" vertex="1">
                    <mxGeometry x="410" y="80.5" width="60" height="30" as="geometry"/>
                </mxCell>
                <mxCell id="MAluX0tYI-qD0DuKJMZw-105" value="" style="edgeStyle=entityRelationEdgeStyle;startArrow=none;endArrow=none;segment=10;curved=1;fontColor=#000000;" parent="MAluX0tYI-qD0DuKJMZw-1" source="MAluX0tYI-qD0DuKJMZw-41" target="MAluX0tYI-qD0DuKJMZw-106" edge="1">
                    <mxGeometry relative="1" as="geometry">
                        <mxPoint x="355" y="473" as="sourcePoint"/>
                        <mxPoint x="250" y="248" as="targetPoint"/>
                    </mxGeometry>
                </mxCell>
                <mxCell id="MAluX0tYI-qD0DuKJMZw-106" value="nginx" style="whiteSpace=wrap;html=1;rounded=1;arcSize=50;align=center;verticalAlign=middle;strokeWidth=1;autosize=1;spacing=4;treeFolding=1;treeMoving=1;newEdgeStyle={&quot;edgeStyle&quot;:&quot;entityRelationEdgeStyle&quot;,&quot;startArrow&quot;:&quot;none&quot;,&quot;endArrow&quot;:&quot;none&quot;,&quot;segment&quot;:10,&quot;curved&quot;:1};" parent="MAluX0tYI-qD0DuKJMZw-1" vertex="1">
                    <mxGeometry x="415" y="138" width="70" height="30" as="geometry"/>
                </mxCell>
                <mxCell id="MAluX0tYI-qD0DuKJMZw-107" value="" style="edgeStyle=entityRelationEdgeStyle;startArrow=none;endArrow=none;segment=10;curved=1;fontColor=#000000;" parent="MAluX0tYI-qD0DuKJMZw-1" source="MAluX0tYI-qD0DuKJMZw-41" target="MAluX0tYI-qD0DuKJMZw-108" edge="1">
                    <mxGeometry relative="1" as="geometry">
                        <mxPoint x="500" y="238" as="sourcePoint"/>
                        <mxPoint x="250" y="248" as="targetPoint"/>
                    </mxGeometry>
                </mxCell>
                <mxCell id="MAluX0tYI-qD0DuKJMZw-108" value="Apache" style="whiteSpace=wrap;html=1;rounded=1;arcSize=50;align=center;verticalAlign=middle;strokeWidth=1;autosize=1;spacing=4;treeFolding=1;treeMoving=1;newEdgeStyle={&quot;edgeStyle&quot;:&quot;entityRelationEdgeStyle&quot;,&quot;startArrow&quot;:&quot;none&quot;,&quot;endArrow&quot;:&quot;none&quot;,&quot;segment&quot;:10,&quot;curved&quot;:1};fillColor=#dae8fc;strokeColor=#6c8ebf;fontColor=#000000;" parent="MAluX0tYI-qD0DuKJMZw-1" vertex="1">
                    <mxGeometry x="410" y="168" width="80" height="30" as="geometry"/>
                </mxCell>
                <mxCell id="MAluX0tYI-qD0DuKJMZw-109" value="OpenAM-A" style="whiteSpace=wrap;html=1;rounded=1;arcSize=50;align=center;verticalAlign=middle;strokeWidth=1;autosize=1;spacing=4;treeFolding=1;treeMoving=1;newEdgeStyle={&quot;edgeStyle&quot;:&quot;entityRelationEdgeStyle&quot;,&quot;startArrow&quot;:&quot;none&quot;,&quot;endArrow&quot;:&quot;none&quot;,&quot;segment&quot;:10,&quot;curved&quot;:1};fillColor=#dae8fc;strokeColor=#6c8ebf;fontColor=#000000;" parent="MAluX0tYI-qD0DuKJMZw-1" vertex="1">
                    <mxGeometry x="250" y="271" width="100" height="30" as="geometry"/>
                </mxCell>
                <mxCell id="MAluX0tYI-qD0DuKJMZw-110" value="" style="edgeStyle=entityRelationEdgeStyle;startArrow=none;endArrow=none;segment=10;curved=1;fontColor=#000000;" parent="MAluX0tYI-qD0DuKJMZw-1" source="MAluX0tYI-qD0DuKJMZw-6" target="MAluX0tYI-qD0DuKJMZw-109" edge="1">
                    <mxGeometry relative="1" as="geometry">
                        <mxPoint x="150" y="440" as="sourcePoint"/>
                        <mxPoint x="225" y="165" as="targetPoint"/>
                    </mxGeometry>
                </mxCell>
                <mxCell id="MAluX0tYI-qD0DuKJMZw-113" value="OpenAM-B" style="whiteSpace=wrap;html=1;rounded=1;arcSize=50;align=center;verticalAlign=middle;strokeWidth=1;autosize=1;spacing=4;treeFolding=1;treeMoving=1;newEdgeStyle={&quot;edgeStyle&quot;:&quot;entityRelationEdgeStyle&quot;,&quot;startArrow&quot;:&quot;none&quot;,&quot;endArrow&quot;:&quot;none&quot;,&quot;segment&quot;:10,&quot;curved&quot;:1};fillColor=#f8cecc;strokeColor=#b85450;fontColor=#000000;" parent="MAluX0tYI-qD0DuKJMZw-1" vertex="1">
                    <mxGeometry x="240" y="402.75" width="100" height="30" as="geometry"/>
                </mxCell>
                <mxCell id="MAluX0tYI-qD0DuKJMZw-114" value="" style="edgeStyle=entityRelationEdgeStyle;startArrow=none;endArrow=none;segment=10;curved=1;fontColor=#000000;" parent="MAluX0tYI-qD0DuKJMZw-1" source="MAluX0tYI-qD0DuKJMZw-6" target="MAluX0tYI-qD0DuKJMZw-113" edge="1">
                    <mxGeometry relative="1" as="geometry">
                        <mxPoint x="150" y="440" as="sourcePoint"/>
                        <mxPoint x="220" y="268" as="targetPoint"/>
                    </mxGeometry>
                </mxCell>
                <mxCell id="MAluX0tYI-qD0DuKJMZw-115" value="UserDataStore" style="whiteSpace=wrap;html=1;rounded=1;arcSize=50;align=center;verticalAlign=middle;strokeWidth=1;autosize=1;spacing=4;treeFolding=1;treeMoving=1;newEdgeStyle={&quot;edgeStyle&quot;:&quot;entityRelationEdgeStyle&quot;,&quot;startArrow&quot;:&quot;none&quot;,&quot;endArrow&quot;:&quot;none&quot;,&quot;segment&quot;:10,&quot;curved&quot;:1};" parent="MAluX0tYI-qD0DuKJMZw-1" vertex="1">
                    <mxGeometry x="240" y="523" width="120" height="30" as="geometry"/>
                </mxCell>
                <mxCell id="MAluX0tYI-qD0DuKJMZw-116" value="" style="edgeStyle=entityRelationEdgeStyle;startArrow=none;endArrow=none;segment=10;curved=1;fontColor=#000000;" parent="MAluX0tYI-qD0DuKJMZw-1" source="MAluX0tYI-qD0DuKJMZw-6" target="MAluX0tYI-qD0DuKJMZw-115" edge="1">
                    <mxGeometry relative="1" as="geometry">
                        <mxPoint x="150" y="440" as="sourcePoint"/>
                        <mxPoint x="215" y="338" as="targetPoint"/>
                    </mxGeometry>
                </mxCell>
                <mxCell id="MAluX0tYI-qD0DuKJMZw-119" value="PolicyAgent" style="whiteSpace=wrap;html=1;rounded=1;arcSize=50;align=center;verticalAlign=middle;strokeWidth=1;autosize=1;spacing=4;treeFolding=1;treeMoving=1;newEdgeStyle={&quot;edgeStyle&quot;:&quot;entityRelationEdgeStyle&quot;,&quot;startArrow&quot;:&quot;none&quot;,&quot;endArrow&quot;:&quot;none&quot;,&quot;segment&quot;:10,&quot;curved&quot;:1};fillColor=#f8cecc;strokeColor=#b85450;fontColor=#000000;" parent="MAluX0tYI-qD0DuKJMZw-1" vertex="1">
                    <mxGeometry x="240" y="634" width="100" height="30" as="geometry"/>
                </mxCell>
                <mxCell id="MAluX0tYI-qD0DuKJMZw-120" value="" style="edgeStyle=entityRelationEdgeStyle;startArrow=none;endArrow=none;segment=10;curved=1;fontColor=#000000;" parent="MAluX0tYI-qD0DuKJMZw-1" source="MAluX0tYI-qD0DuKJMZw-6" target="MAluX0tYI-qD0DuKJMZw-119" edge="1">
                    <mxGeometry relative="1" as="geometry">
                        <mxPoint x="150" y="440" as="sourcePoint"/>
                        <mxPoint x="205" y="427" as="targetPoint"/>
                    </mxGeometry>
                </mxCell>
                <mxCell id="MAluX0tYI-qD0DuKJMZw-121" value="Application" style="whiteSpace=wrap;html=1;rounded=1;arcSize=50;align=center;verticalAlign=middle;strokeWidth=1;autosize=1;spacing=4;treeFolding=1;treeMoving=1;newEdgeStyle={&quot;edgeStyle&quot;:&quot;entityRelationEdgeStyle&quot;,&quot;startArrow&quot;:&quot;none&quot;,&quot;endArrow&quot;:&quot;none&quot;,&quot;segment&quot;:10,&quot;curved&quot;:1};fillColor=#fff2cc;strokeColor=#d6b656;fontColor=#000000;" parent="MAluX0tYI-qD0DuKJMZw-1" vertex="1">
                    <mxGeometry x="250" y="723" width="100" height="30" as="geometry"/>
                </mxCell>
                <mxCell id="MAluX0tYI-qD0DuKJMZw-122" value="" style="edgeStyle=entityRelationEdgeStyle;startArrow=none;endArrow=none;segment=10;curved=1;fontColor=#000000;" parent="MAluX0tYI-qD0DuKJMZw-1" source="MAluX0tYI-qD0DuKJMZw-6" target="MAluX0tYI-qD0DuKJMZw-121" edge="1">
                    <mxGeometry relative="1" as="geometry">
                        <mxPoint x="150" y="440" as="sourcePoint"/>
                        <mxPoint x="215" y="538" as="targetPoint"/>
                    </mxGeometry>
                </mxCell>
                <mxCell id="MAluX0tYI-qD0DuKJMZw-123" value="TestDriver" style="whiteSpace=wrap;html=1;rounded=1;arcSize=50;align=center;verticalAlign=middle;strokeWidth=1;autosize=1;spacing=4;treeFolding=1;treeMoving=1;newEdgeStyle={&quot;edgeStyle&quot;:&quot;entityRelationEdgeStyle&quot;,&quot;startArrow&quot;:&quot;none&quot;,&quot;endArrow&quot;:&quot;none&quot;,&quot;segment&quot;:10,&quot;curved&quot;:1};" parent="MAluX0tYI-qD0DuKJMZw-1" vertex="1">
                    <mxGeometry x="255" y="814.25" width="90" height="30" as="geometry"/>
                </mxCell>
                <mxCell id="MAluX0tYI-qD0DuKJMZw-124" value="" style="edgeStyle=entityRelationEdgeStyle;startArrow=none;endArrow=none;segment=10;curved=1;fontColor=#000000;" parent="MAluX0tYI-qD0DuKJMZw-1" source="MAluX0tYI-qD0DuKJMZw-6" target="MAluX0tYI-qD0DuKJMZw-123" edge="1">
                    <mxGeometry relative="1" as="geometry">
                        <mxPoint x="150" y="440" as="sourcePoint"/>
                        <mxPoint x="235" y="707.75" as="targetPoint"/>
                    </mxGeometry>
                </mxCell>
                <mxCell id="MAluX0tYI-qD0DuKJMZw-125" value="" style="edgeStyle=entityRelationEdgeStyle;startArrow=none;endArrow=none;segment=10;curved=1;fontColor=#000000;" parent="MAluX0tYI-qD0DuKJMZw-1" source="MAluX0tYI-qD0DuKJMZw-123" target="MAluX0tYI-qD0DuKJMZw-126" edge="1">
                    <mxGeometry relative="1" as="geometry">
                        <mxPoint x="320" y="498.25" as="sourcePoint"/>
                        <mxPoint x="235" y="749" as="targetPoint"/>
                    </mxGeometry>
                </mxCell>
                <mxCell id="MAluX0tYI-qD0DuKJMZw-126" value="Selenium" style="whiteSpace=wrap;html=1;rounded=1;arcSize=50;align=center;verticalAlign=middle;strokeWidth=1;autosize=1;spacing=4;treeFolding=1;treeMoving=1;newEdgeStyle={&quot;edgeStyle&quot;:&quot;entityRelationEdgeStyle&quot;,&quot;startArrow&quot;:&quot;none&quot;,&quot;endArrow&quot;:&quot;none&quot;,&quot;segment&quot;:10,&quot;curved&quot;:1};" parent="MAluX0tYI-qD0DuKJMZw-1" vertex="1">
                    <mxGeometry x="405" y="794.25" width="90" height="30" as="geometry"/>
                </mxCell>
                <mxCell id="MAluX0tYI-qD0DuKJMZw-127" value="ServerSpec" style="whiteSpace=wrap;html=1;rounded=1;arcSize=50;align=center;verticalAlign=middle;strokeWidth=1;autosize=1;spacing=4;treeFolding=1;treeMoving=1;newEdgeStyle={&quot;edgeStyle&quot;:&quot;entityRelationEdgeStyle&quot;,&quot;startArrow&quot;:&quot;none&quot;,&quot;endArrow&quot;:&quot;none&quot;,&quot;segment&quot;:10,&quot;curved&quot;:1};" parent="MAluX0tYI-qD0DuKJMZw-1" vertex="1">
                    <mxGeometry x="400" y="824.25" width="100" height="30" as="geometry"/>
                </mxCell>
                <mxCell id="MAluX0tYI-qD0DuKJMZw-128" value="" style="edgeStyle=entityRelationEdgeStyle;startArrow=none;endArrow=none;segment=10;curved=1;fontColor=#000000;" parent="MAluX0tYI-qD0DuKJMZw-1" source="MAluX0tYI-qD0DuKJMZw-123" target="MAluX0tYI-qD0DuKJMZw-127" edge="1">
                    <mxGeometry relative="1" as="geometry">
                        <mxPoint x="325" y="809.25" as="sourcePoint"/>
                        <mxPoint x="405" y="809.25" as="targetPoint"/>
                    </mxGeometry>
                </mxCell>
                <mxCell id="eAi3Z4oJkp1CK_27CIT8-4" value="ConfigrationDataStore" style="whiteSpace=wrap;html=1;rounded=1;arcSize=50;align=center;verticalAlign=middle;strokeWidth=1;autosize=1;spacing=4;treeFolding=1;treeMoving=1;newEdgeStyle={&quot;edgeStyle&quot;:&quot;entityRelationEdgeStyle&quot;,&quot;startArrow&quot;:&quot;none&quot;,&quot;endArrow&quot;:&quot;none&quot;,&quot;segment&quot;:10,&quot;curved&quot;:1};" parent="MAluX0tYI-qD0DuKJMZw-1" vertex="1">
                    <mxGeometry x="230" y="463" width="160" height="30" as="geometry"/>
                </mxCell>
                <mxCell id="eAi3Z4oJkp1CK_27CIT8-5" value="" style="edgeStyle=entityRelationEdgeStyle;startArrow=none;endArrow=none;segment=10;curved=1;fontColor=#000000;" parent="MAluX0tYI-qD0DuKJMZw-1" source="MAluX0tYI-qD0DuKJMZw-6" target="eAi3Z4oJkp1CK_27CIT8-4" edge="1">
                    <mxGeometry relative="1" as="geometry">
                        <mxPoint x="150" y="440" as="sourcePoint"/>
                        <mxPoint x="240" y="397.75" as="targetPoint"/>
                    </mxGeometry>
                </mxCell>
                <mxCell id="eAi3Z4oJkp1CK_27CIT8-6" value="OpenDJ" style="whiteSpace=wrap;html=1;rounded=1;arcSize=50;align=center;verticalAlign=middle;strokeWidth=1;autosize=1;spacing=4;treeFolding=1;treeMoving=1;newEdgeStyle={&quot;edgeStyle&quot;:&quot;entityRelationEdgeStyle&quot;,&quot;startArrow&quot;:&quot;none&quot;,&quot;endArrow&quot;:&quot;none&quot;,&quot;segment&quot;:10,&quot;curved&quot;:1};" parent="MAluX0tYI-qD0DuKJMZw-1" vertex="1">
                    <mxGeometry x="410" y="463" width="80" height="30" as="geometry"/>
                </mxCell>
                <mxCell id="eAi3Z4oJkp1CK_27CIT8-7" value="" style="edgeStyle=entityRelationEdgeStyle;startArrow=none;endArrow=none;segment=10;curved=1;exitX=1;exitY=0.5;exitDx=0;exitDy=0;fontColor=#000000;" parent="MAluX0tYI-qD0DuKJMZw-1" source="eAi3Z4oJkp1CK_27CIT8-4" target="eAi3Z4oJkp1CK_27CIT8-6" edge="1">
                    <mxGeometry relative="1" as="geometry">
                        <mxPoint x="350" y="548" as="sourcePoint"/>
                        <mxPoint x="407.5" y="518" as="targetPoint"/>
                    </mxGeometry>
                </mxCell>
                <mxCell id="eAi3Z4oJkp1CK_27CIT8-8" value="Tail log" style="whiteSpace=wrap;html=1;rounded=1;arcSize=50;align=center;verticalAlign=middle;strokeWidth=1;autosize=1;spacing=4;treeFolding=1;treeMoving=1;newEdgeStyle={&quot;edgeStyle&quot;:&quot;entityRelationEdgeStyle&quot;,&quot;startArrow&quot;:&quot;none&quot;,&quot;endArrow&quot;:&quot;none&quot;,&quot;segment&quot;:10,&quot;curved&quot;:1};" parent="MAluX0tYI-qD0DuKJMZw-1" vertex="1">
                    <mxGeometry x="242.5" y="343" width="80" height="30" as="geometry"/>
                </mxCell>
                <mxCell id="eAi3Z4oJkp1CK_27CIT8-9" value="" style="edgeStyle=entityRelationEdgeStyle;startArrow=none;endArrow=none;segment=10;curved=1;exitX=1;exitY=0.5;exitDx=0;exitDy=0;fontColor=#000000;" parent="MAluX0tYI-qD0DuKJMZw-1" source="MAluX0tYI-qD0DuKJMZw-6" target="eAi3Z4oJkp1CK_27CIT8-8" edge="1">
                    <mxGeometry relative="1" as="geometry">
                        <mxPoint x="320" y="90.5" as="sourcePoint"/>
                        <mxPoint x="410" y="118" as="targetPoint"/>
                    </mxGeometry>
                </mxCell>
                <mxCell id="eAi3Z4oJkp1CK_27CIT8-10" value="Redmine" style="whiteSpace=wrap;html=1;rounded=1;arcSize=50;align=center;verticalAlign=middle;strokeWidth=1;autosize=1;spacing=4;treeFolding=1;treeMoving=1;newEdgeStyle={&quot;edgeStyle&quot;:&quot;entityRelationEdgeStyle&quot;,&quot;startArrow&quot;:&quot;none&quot;,&quot;endArrow&quot;:&quot;none&quot;,&quot;segment&quot;:10,&quot;curved&quot;:1};fillColor=#fff2cc;strokeColor=#d6b656;fontColor=#000000;" parent="MAluX0tYI-qD0DuKJMZw-1" vertex="1">
                    <mxGeometry x="407.5" y="743" width="90" height="30" as="geometry"/>
                </mxCell>
                <mxCell id="eAi3Z4oJkp1CK_27CIT8-11" value="" style="edgeStyle=entityRelationEdgeStyle;startArrow=none;endArrow=none;segment=10;curved=1;exitX=1;exitY=0.5;exitDx=0;exitDy=0;fontColor=#000000;" parent="MAluX0tYI-qD0DuKJMZw-1" source="MAluX0tYI-qD0DuKJMZw-121" target="eAi3Z4oJkp1CK_27CIT8-10" edge="1">
                    <mxGeometry relative="1" as="geometry">
                        <mxPoint x="350" y="749" as="sourcePoint"/>
                        <mxPoint x="402.5" y="728" as="targetPoint"/>
                    </mxGeometry>
                </mxCell>
                <mxCell id="d1C2ps7KJyBWKf2zDEV1-1" value="TLS" style="whiteSpace=wrap;html=1;rounded=1;arcSize=50;align=center;verticalAlign=middle;strokeWidth=1;autosize=1;spacing=4;treeFolding=1;treeMoving=1;newEdgeStyle={&quot;edgeStyle&quot;:&quot;entityRelationEdgeStyle&quot;,&quot;startArrow&quot;:&quot;none&quot;,&quot;endArrow&quot;:&quot;none&quot;,&quot;segment&quot;:10,&quot;curved&quot;:1};fillColor=#fff2cc;strokeColor=#d6b656;fontColor=#000000;" parent="MAluX0tYI-qD0DuKJMZw-1" vertex="1">
                    <mxGeometry x="575" y="153" width="60" height="30" as="geometry"/>
                </mxCell>
                <mxCell id="d1C2ps7KJyBWKf2zDEV1-2" value="" style="edgeStyle=entityRelationEdgeStyle;startArrow=none;endArrow=none;segment=10;curved=1;exitX=1;exitY=0.5;exitDx=0;exitDy=0;fontColor=#000000;" parent="MAluX0tYI-qD0DuKJMZw-1" source="MAluX0tYI-qD0DuKJMZw-108" target="d1C2ps7KJyBWKf2zDEV1-1" edge="1">
                    <mxGeometry relative="1" as="geometry">
                        <mxPoint x="507.5" y="260.5" as="sourcePoint"/>
                        <mxPoint x="580" y="228" as="targetPoint"/>
                    </mxGeometry>
                </mxCell>
                <mxCell id="pds7coUI5VrJy275e-Mt-1" value="" style="edgeStyle=entityRelationEdgeStyle;startArrow=none;endArrow=none;segment=10;curved=1;exitX=1;exitY=0.5;exitDx=0;exitDy=0;fontColor=#000000;" parent="MAluX0tYI-qD0DuKJMZw-1" source="MAluX0tYI-qD0DuKJMZw-93" target="pds7coUI5VrJy275e-Mt-2" edge="1">
                    <mxGeometry relative="1" as="geometry">
                        <mxPoint x="520" y="766" as="sourcePoint"/>
                        <mxPoint x="230" y="776" as="targetPoint"/>
                    </mxGeometry>
                </mxCell>
                <mxCell id="pds7coUI5VrJy275e-Mt-2" value="OIDC" style="whiteSpace=wrap;html=1;rounded=1;arcSize=50;align=center;verticalAlign=middle;strokeWidth=1;autosize=1;spacing=4;treeFolding=1;treeMoving=1;newEdgeStyle={&quot;edgeStyle&quot;:&quot;entityRelationEdgeStyle&quot;,&quot;startArrow&quot;:&quot;none&quot;,&quot;endArrow&quot;:&quot;none&quot;,&quot;segment&quot;:10,&quot;curved&quot;:1};" parent="MAluX0tYI-qD0DuKJMZw-1" vertex="1">
                    <mxGeometry x="557.5" y="713" width="70" height="30" as="geometry"/>
                </mxCell>
                <mxCell id="pds7coUI5VrJy275e-Mt-3" value="" style="edgeStyle=entityRelationEdgeStyle;startArrow=none;endArrow=none;segment=10;curved=1;exitX=1;exitY=0.5;exitDx=0;exitDy=0;fontColor=#000000;" parent="MAluX0tYI-qD0DuKJMZw-1" source="eAi3Z4oJkp1CK_27CIT8-10" target="pds7coUI5VrJy275e-Mt-4" edge="1">
                    <mxGeometry relative="1" as="geometry">
                        <mxPoint x="520" y="766" as="sourcePoint"/>
                        <mxPoint x="402.5" y="728" as="targetPoint"/>
                    </mxGeometry>
                </mxCell>
                <mxCell id="pds7coUI5VrJy275e-Mt-4" value="OIDC" style="whiteSpace=wrap;html=1;rounded=1;arcSize=50;align=center;verticalAlign=middle;strokeWidth=1;autosize=1;spacing=4;treeFolding=1;treeMoving=1;newEdgeStyle={&quot;edgeStyle&quot;:&quot;entityRelationEdgeStyle&quot;,&quot;startArrow&quot;:&quot;none&quot;,&quot;endArrow&quot;:&quot;none&quot;,&quot;segment&quot;:10,&quot;curved&quot;:1};" parent="MAluX0tYI-qD0DuKJMZw-1" vertex="1">
                    <mxGeometry x="547.5" y="743" width="70" height="30" as="geometry"/>
                </mxCell>
                <mxCell id="DKAfLfjuJZGdkFnb9aYq-1" value="" style="edgeStyle=entityRelationEdgeStyle;startArrow=none;endArrow=none;segment=10;curved=1;exitX=1;exitY=0.5;exitDx=0;exitDy=0;fontColor=#000000;" parent="MAluX0tYI-qD0DuKJMZw-1" source="MAluX0tYI-qD0DuKJMZw-108" target="DKAfLfjuJZGdkFnb9aYq-2" edge="1">
                    <mxGeometry relative="1" as="geometry">
                        <mxPoint x="655" y="215" as="sourcePoint"/>
                        <mxPoint x="580" y="228" as="targetPoint"/>
                    </mxGeometry>
                </mxCell>
                <mxCell id="DKAfLfjuJZGdkFnb9aYq-2" value="StickySession" style="whiteSpace=wrap;html=1;rounded=1;arcSize=50;align=center;verticalAlign=middle;strokeWidth=1;autosize=1;spacing=4;treeFolding=1;treeMoving=1;newEdgeStyle={&quot;edgeStyle&quot;:&quot;entityRelationEdgeStyle&quot;,&quot;startArrow&quot;:&quot;none&quot;,&quot;endArrow&quot;:&quot;none&quot;,&quot;segment&quot;:10,&quot;curved&quot;:1};fillColor=#dae8fc;strokeColor=#6c8ebf;fontColor=#000000;" parent="MAluX0tYI-qD0DuKJMZw-1" vertex="1">
                    <mxGeometry x="575" y="183" width="120" height="30" as="geometry"/>
                </mxCell>
                <mxCell id="fbypiHUkDOpmYTXV1of_-3" value="" style="edgeStyle=entityRelationEdgeStyle;startArrow=none;endArrow=none;segment=10;curved=1;exitX=1;exitY=0.5;exitDx=0;exitDy=0;fontColor=#000000;" parent="MAluX0tYI-qD0DuKJMZw-1" source="eAi3Z4oJkp1CK_27CIT8-8" target="fbypiHUkDOpmYTXV1of_-4" edge="1">
                    <mxGeometry relative="1" as="geometry">
                        <mxPoint x="485" y="365" as="sourcePoint"/>
                        <mxPoint x="397.5" y="228" as="targetPoint"/>
                    </mxGeometry>
                </mxCell>
                <mxCell id="fbypiHUkDOpmYTXV1of_-4" value="Fluentd Agent" style="whiteSpace=wrap;html=1;rounded=1;arcSize=50;align=center;verticalAlign=middle;strokeWidth=1;autosize=1;spacing=4;treeFolding=1;treeMoving=1;newEdgeStyle={&quot;edgeStyle&quot;:&quot;entityRelationEdgeStyle&quot;,&quot;startArrow&quot;:&quot;none&quot;,&quot;endArrow&quot;:&quot;none&quot;,&quot;segment&quot;:10,&quot;curved&quot;:1};" parent="MAluX0tYI-qD0DuKJMZw-1" vertex="1">
                    <mxGeometry x="397.5" y="323" width="110" height="30" as="geometry"/>
                </mxCell>
                <mxCell id="fbypiHUkDOpmYTXV1of_-6" value="" style="edgeStyle=entityRelationEdgeStyle;startArrow=none;endArrow=none;segment=10;curved=1;exitX=1;exitY=0.5;exitDx=0;exitDy=0;fontColor=#000000;" parent="MAluX0tYI-qD0DuKJMZw-1" source="MAluX0tYI-qD0DuKJMZw-31" target="fbypiHUkDOpmYTXV1of_-7" edge="1">
                    <mxGeometry relative="1" as="geometry">
                        <mxPoint x="510" y="656" as="sourcePoint"/>
                        <mxPoint x="240" y="606" as="targetPoint"/>
                    </mxGeometry>
                </mxCell>
                <mxCell id="fbypiHUkDOpmYTXV1of_-7" value="Silent install" style="whiteSpace=wrap;html=1;rounded=1;arcSize=50;align=center;verticalAlign=middle;strokeWidth=1;autosize=1;spacing=4;treeFolding=1;treeMoving=1;newEdgeStyle={&quot;edgeStyle&quot;:&quot;entityRelationEdgeStyle&quot;,&quot;startArrow&quot;:&quot;none&quot;,&quot;endArrow&quot;:&quot;none&quot;,&quot;segment&quot;:10,&quot;curved&quot;:1};" parent="MAluX0tYI-qD0DuKJMZw-1" vertex="1">
                    <mxGeometry x="555" y="583" width="100" height="30" as="geometry"/>
                </mxCell>
                <mxCell id="fbypiHUkDOpmYTXV1of_-8" value="" style="edgeStyle=entityRelationEdgeStyle;startArrow=none;endArrow=none;segment=10;curved=1;exitX=1;exitY=0.5;exitDx=0;exitDy=0;fontColor=#000000;" parent="MAluX0tYI-qD0DuKJMZw-1" source="MAluX0tYI-qD0DuKJMZw-31" target="fbypiHUkDOpmYTXV1of_-9" edge="1">
                    <mxGeometry relative="1" as="geometry">
                        <mxPoint x="680" y="636" as="sourcePoint"/>
                        <mxPoint x="240" y="606" as="targetPoint"/>
                    </mxGeometry>
                </mxCell>
                <mxCell id="fbypiHUkDOpmYTXV1of_-9" value="Tail log" style="whiteSpace=wrap;html=1;rounded=1;arcSize=50;align=center;verticalAlign=middle;strokeWidth=1;autosize=1;spacing=4;treeFolding=1;treeMoving=1;newEdgeStyle={&quot;edgeStyle&quot;:&quot;entityRelationEdgeStyle&quot;,&quot;startArrow&quot;:&quot;none&quot;,&quot;endArrow&quot;:&quot;none&quot;,&quot;segment&quot;:10,&quot;curved&quot;:1};" parent="MAluX0tYI-qD0DuKJMZw-1" vertex="1">
                    <mxGeometry x="565" y="613" width="80" height="30" as="geometry"/>
                </mxCell>
                <mxCell id="fbypiHUkDOpmYTXV1of_-10" value="" style="edgeStyle=entityRelationEdgeStyle;startArrow=none;endArrow=none;segment=10;curved=1;exitX=1;exitY=0.5;exitDx=0;exitDy=0;fontColor=#000000;" parent="MAluX0tYI-qD0DuKJMZw-1" source="MAluX0tYI-qD0DuKJMZw-108" target="fbypiHUkDOpmYTXV1of_-11" edge="1">
                    <mxGeometry relative="1" as="geometry">
                        <mxPoint x="655" y="215" as="sourcePoint"/>
                        <mxPoint x="580" y="228" as="targetPoint"/>
                    </mxGeometry>
                </mxCell>
                <mxCell id="fbypiHUkDOpmYTXV1of_-11" value="Cert (独自 or 自己署名)" style="whiteSpace=wrap;html=1;rounded=1;arcSize=50;align=center;verticalAlign=middle;strokeWidth=1;autosize=1;spacing=4;treeFolding=1;treeMoving=1;newEdgeStyle={&quot;edgeStyle&quot;:&quot;entityRelationEdgeStyle&quot;,&quot;startArrow&quot;:&quot;none&quot;,&quot;endArrow&quot;:&quot;none&quot;,&quot;segment&quot;:10,&quot;curved&quot;:1};fillColor=#fff2cc;strokeColor=#d6b656;fontColor=#000000;" parent="MAluX0tYI-qD0DuKJMZw-1" vertex="1">
                    <mxGeometry x="580" y="123" width="160" height="30" as="geometry"/>
                </mxCell>
            </root>
        </mxGraphModel>
    </diagram>
    <diagram id="ZmeXaeIphyA8NbpNZn1M" name="2-pattern">
        &#xa;
        <mxGraphModel dx="963" dy="649" grid="1" gridSize="10" guides="1" tooltips="1" connect="1" arrows="1" fold="1" page="1" pageScale="1" pageWidth="1169" pageHeight="827" math="0" shadow="0">
            &#xa;
            <root>
                &#xa;
                <mxCell id="CMNXmvtICkkdgb55rWGo-0"/>
                &#xa;
                <mxCell id="CMNXmvtICkkdgb55rWGo-1" parent="CMNXmvtICkkdgb55rWGo-0"/>
                &#xa;
                <mxCell id="WQIkQvsgn9cU8Fvu_Him-0" value="Mindmap" style="swimlane;html=1;startSize=20;horizontal=1;containerType=tree;strokeColor=#000000;" parent="CMNXmvtICkkdgb55rWGo-1" vertex="1">
                    &#xa;
                    <mxGeometry x="165" y="110" width="1115" height="560" as="geometry"/>
                    &#xa;
                </mxCell>
                &#xa;
                <mxCell id="WQIkQvsgn9cU8Fvu_Him-1" value="" style="edgeStyle=entityRelationEdgeStyle;startArrow=none;endArrow=none;segment=10;curved=1;" parent="WQIkQvsgn9cU8Fvu_Him-0" source="WQIkQvsgn9cU8Fvu_Him-5" target="WQIkQvsgn9cU8Fvu_Him-6" edge="1">
                    &#xa;
                    <mxGeometry relative="1" as="geometry"/>
                    &#xa;
                </mxCell>
                &#xa;
                <mxCell id="WQIkQvsgn9cU8Fvu_Him-5" value="利用パターン" style="ellipse;whiteSpace=wrap;html=1;align=center;treeFolding=1;treeMoving=1;newEdgeStyle={&quot;edgeStyle&quot;:&quot;entityRelationEdgeStyle&quot;,&quot;startArrow&quot;:&quot;none&quot;,&quot;endArrow&quot;:&quot;none&quot;,&quot;segment&quot;:10,&quot;curved&quot;:1};" parent="WQIkQvsgn9cU8Fvu_Him-0" vertex="1">
                    &#xa;
                    <mxGeometry x="62.5" y="220" width="100" height="40" as="geometry"/>
                    &#xa;
                </mxCell>
                &#xa;
                <mxCell id="WQIkQvsgn9cU8Fvu_Him-6" value="https" style="whiteSpace=wrap;html=1;rounded=1;arcSize=50;align=center;verticalAlign=middle;strokeWidth=1;autosize=1;spacing=4;treeFolding=1;treeMoving=1;newEdgeStyle={&quot;edgeStyle&quot;:&quot;entityRelationEdgeStyle&quot;,&quot;startArrow&quot;:&quot;none&quot;,&quot;endArrow&quot;:&quot;none&quot;,&quot;segment&quot;:10,&quot;curved&quot;:1};" parent="WQIkQvsgn9cU8Fvu_Him-0" vertex="1">
                    &#xa;
                    <mxGeometry x="225" y="430" width="70" height="30" as="geometry"/>
                    &#xa;
                </mxCell>
                &#xa;
                <mxCell id="WQIkQvsgn9cU8Fvu_Him-12" value="" style="edgeStyle=entityRelationEdgeStyle;startArrow=none;endArrow=none;segment=10;curved=1;" parent="WQIkQvsgn9cU8Fvu_Him-0" source="WQIkQvsgn9cU8Fvu_Him-5" target="WQIkQvsgn9cU8Fvu_Him-13" edge="1">
                    &#xa;
                    <mxGeometry relative="1" as="geometry">
                        &#xa;
                        <mxPoint x="327.5" y="350" as="sourcePoint"/>
                        &#xa;
                    </mxGeometry>
                    &#xa;
                </mxCell>
                &#xa;
                <mxCell id="WQIkQvsgn9cU8Fvu_Him-13" value="SAML" style="whiteSpace=wrap;html=1;rounded=1;arcSize=50;align=center;verticalAlign=middle;strokeWidth=1;autosize=1;spacing=4;treeFolding=1;treeMoving=1;newEdgeStyle={&quot;edgeStyle&quot;:&quot;entityRelationEdgeStyle&quot;,&quot;startArrow&quot;:&quot;none&quot;,&quot;endArrow&quot;:&quot;none&quot;,&quot;segment&quot;:10,&quot;curved&quot;:1};" parent="WQIkQvsgn9cU8Fvu_Him-0" vertex="1" collapsed="1">
                    &#xa;
                    <mxGeometry x="230" y="520" width="70" height="30" as="geometry"/>
                    &#xa;
                </mxCell>
                &#xa;
                <mxCell id="WQIkQvsgn9cU8Fvu_Him-14" value="" style="edgeStyle=entityRelationEdgeStyle;startArrow=none;endArrow=none;segment=10;curved=1;" parent="WQIkQvsgn9cU8Fvu_Him-0" source="WQIkQvsgn9cU8Fvu_Him-5" target="WQIkQvsgn9cU8Fvu_Him-15" edge="1">
                    &#xa;
                    <mxGeometry relative="1" as="geometry">
                        &#xa;
                        <mxPoint x="327.5" y="350" as="sourcePoint"/>
                        &#xa;
                    </mxGeometry>
                    &#xa;
                </mxCell>
                &#xa;
                <mxCell id="WQIkQvsgn9cU8Fvu_Him-15" value="password" style="whiteSpace=wrap;html=1;rounded=1;arcSize=50;align=center;verticalAlign=middle;strokeWidth=1;autosize=1;spacing=4;treeFolding=1;treeMoving=1;newEdgeStyle={&quot;edgeStyle&quot;:&quot;entityRelationEdgeStyle&quot;,&quot;startArrow&quot;:&quot;none&quot;,&quot;endArrow&quot;:&quot;none&quot;,&quot;segment&quot;:10,&quot;curved&quot;:1};fillColor=#dae8fc;strokeColor=#6c8ebf;" parent="WQIkQvsgn9cU8Fvu_Him-0" vertex="1">
                    &#xa;
                    <mxGeometry x="247.5" y="70" width="90" height="30" as="geometry"/>
                    &#xa;
                </mxCell>
                &#xa;
                <mxCell id="WQIkQvsgn9cU8Fvu_Him-16" value="" style="edgeStyle=entityRelationEdgeStyle;startArrow=none;endArrow=none;segment=10;curved=1;" parent="WQIkQvsgn9cU8Fvu_Him-0" source="WQIkQvsgn9cU8Fvu_Him-15" target="WQIkQvsgn9cU8Fvu_Him-17" edge="1">
                    &#xa;
                    <mxGeometry relative="1" as="geometry">
                        &#xa;
                        <mxPoint x="327.5" y="330" as="sourcePoint"/>
                        &#xa;
                    </mxGeometry>
                    &#xa;
                </mxCell>
                &#xa;
                <mxCell id="WQIkQvsgn9cU8Fvu_Him-17" value=".env" style="whiteSpace=wrap;html=1;rounded=1;arcSize=50;align=center;verticalAlign=middle;strokeWidth=1;autosize=1;spacing=4;treeFolding=1;treeMoving=1;newEdgeStyle={&quot;edgeStyle&quot;:&quot;entityRelationEdgeStyle&quot;,&quot;startArrow&quot;:&quot;none&quot;,&quot;endArrow&quot;:&quot;none&quot;,&quot;segment&quot;:10,&quot;curved&quot;:1};fillColor=#dae8fc;strokeColor=#6c8ebf;" parent="WQIkQvsgn9cU8Fvu_Him-0" vertex="1">
                    &#xa;
                    <mxGeometry x="417.5" y="70" width="60" height="30" as="geometry"/>
                    &#xa;
                </mxCell>
                &#xa;
                <mxCell id="WQIkQvsgn9cU8Fvu_Him-20" value="" style="edgeStyle=entityRelationEdgeStyle;startArrow=none;endArrow=none;segment=10;curved=1;" parent="WQIkQvsgn9cU8Fvu_Him-0" source="WQIkQvsgn9cU8Fvu_Him-6" target="WQIkQvsgn9cU8Fvu_Him-21" edge="1">
                    &#xa;
                    <mxGeometry relative="1" as="geometry">
                        &#xa;
                        <mxPoint x="305" y="570" as="sourcePoint"/>
                        &#xa;
                    </mxGeometry>
                    &#xa;
                </mxCell>
                &#xa;
                <mxCell id="WQIkQvsgn9cU8Fvu_Him-21" value="独自証明書 Inject" style="whiteSpace=wrap;html=1;rounded=1;arcSize=50;align=center;verticalAlign=middle;strokeWidth=1;autosize=1;spacing=4;treeFolding=1;treeMoving=1;newEdgeStyle={&quot;edgeStyle&quot;:&quot;entityRelationEdgeStyle&quot;,&quot;startArrow&quot;:&quot;none&quot;,&quot;endArrow&quot;:&quot;none&quot;,&quot;segment&quot;:10,&quot;curved&quot;:1};" parent="WQIkQvsgn9cU8Fvu_Him-0" vertex="1">
                    &#xa;
                    <mxGeometry x="360" y="430" width="130" height="30" as="geometry"/>
                    &#xa;
                </mxCell>
                &#xa;
                <mxCell id="WQIkQvsgn9cU8Fvu_Him-22" value="" style="edgeStyle=entityRelationEdgeStyle;startArrow=none;endArrow=none;segment=10;curved=1;" parent="WQIkQvsgn9cU8Fvu_Him-0" source="WQIkQvsgn9cU8Fvu_Him-6" target="WQIkQvsgn9cU8Fvu_Him-23" edge="1">
                    &#xa;
                    <mxGeometry relative="1" as="geometry">
                        &#xa;
                        <mxPoint x="460" y="535" as="sourcePoint"/>
                        &#xa;
                    </mxGeometry>
                    &#xa;
                </mxCell>
                &#xa;
                <mxCell id="WQIkQvsgn9cU8Fvu_Him-23" value="Let's encrypt" style="whiteSpace=wrap;html=1;rounded=1;arcSize=50;align=center;verticalAlign=middle;strokeWidth=1;autosize=1;spacing=4;treeFolding=1;treeMoving=1;newEdgeStyle={&quot;edgeStyle&quot;:&quot;entityRelationEdgeStyle&quot;,&quot;startArrow&quot;:&quot;none&quot;,&quot;endArrow&quot;:&quot;none&quot;,&quot;segment&quot;:10,&quot;curved&quot;:1};" parent="WQIkQvsgn9cU8Fvu_Him-0" vertex="1">
                    &#xa;
                    <mxGeometry x="375" y="460" width="110" height="30" as="geometry"/>
                    &#xa;
                </mxCell>
                &#xa;
                <mxCell id="WQIkQvsgn9cU8Fvu_Him-24" value="" style="edgeStyle=entityRelationEdgeStyle;startArrow=none;endArrow=none;segment=10;curved=1;" parent="WQIkQvsgn9cU8Fvu_Him-0" source="WQIkQvsgn9cU8Fvu_Him-6" target="WQIkQvsgn9cU8Fvu_Him-25" edge="1">
                    &#xa;
                    <mxGeometry relative="1" as="geometry">
                        &#xa;
                        <mxPoint x="460" y="535" as="sourcePoint"/>
                        &#xa;
                    </mxGeometry>
                    &#xa;
                </mxCell>
                &#xa;
                <mxCell id="WQIkQvsgn9cU8Fvu_Him-25" value="自己署名証明書" style="whiteSpace=wrap;html=1;rounded=1;arcSize=50;align=center;verticalAlign=middle;strokeWidth=1;autosize=1;spacing=4;treeFolding=1;treeMoving=1;newEdgeStyle={&quot;edgeStyle&quot;:&quot;entityRelationEdgeStyle&quot;,&quot;startArrow&quot;:&quot;none&quot;,&quot;endArrow&quot;:&quot;none&quot;,&quot;segment&quot;:10,&quot;curved&quot;:1};" parent="WQIkQvsgn9cU8Fvu_Him-0" vertex="1">
                    &#xa;
                    <mxGeometry x="375" y="400" width="120" height="30" as="geometry"/>
                    &#xa;
                </mxCell>
                &#xa;
                <mxCell id="WQIkQvsgn9cU8Fvu_Him-26" value="" style="edgeStyle=entityRelationEdgeStyle;startArrow=none;endArrow=none;segment=10;curved=1;" parent="WQIkQvsgn9cU8Fvu_Him-0" source="WQIkQvsgn9cU8Fvu_Him-13" target="WQIkQvsgn9cU8Fvu_Him-27" edge="1">
                    &#xa;
                    <mxGeometry relative="1" as="geometry">
                        &#xa;
                        <mxPoint x="310" y="540" as="sourcePoint"/>
                        &#xa;
                    </mxGeometry>
                    &#xa;
                </mxCell>
                &#xa;
                <mxCell id="WQIkQvsgn9cU8Fvu_Him-27" value="自己署名証明書" style="whiteSpace=wrap;html=1;rounded=1;arcSize=50;align=center;verticalAlign=middle;strokeWidth=1;autosize=1;spacing=4;treeFolding=1;treeMoving=1;newEdgeStyle={&quot;edgeStyle&quot;:&quot;entityRelationEdgeStyle&quot;,&quot;startArrow&quot;:&quot;none&quot;,&quot;endArrow&quot;:&quot;none&quot;,&quot;segment&quot;:10,&quot;curved&quot;:1};" parent="WQIkQvsgn9cU8Fvu_Him-0" vertex="1" collapsed="1">
                    &#xa;
                    <mxGeometry x="375" y="520" width="120" height="30" as="geometry"/>
                    &#xa;
                </mxCell>
                &#xa;
                <mxCell id="WQIkQvsgn9cU8Fvu_Him-28" value="" style="edgeStyle=entityRelationEdgeStyle;startArrow=none;endArrow=none;segment=10;curved=1;" parent="WQIkQvsgn9cU8Fvu_Him-0" source="WQIkQvsgn9cU8Fvu_Him-5" target="WQIkQvsgn9cU8Fvu_Him-29" edge="1">
                    &#xa;
                    <mxGeometry relative="1" as="geometry">
                        &#xa;
                        <mxPoint x="327.5" y="350" as="sourcePoint"/>
                        &#xa;
                    </mxGeometry>
                    &#xa;
                </mxCell>
                &#xa;
                <mxCell id="WQIkQvsgn9cU8Fvu_Him-29" value="ホスト名" style="whiteSpace=wrap;html=1;rounded=1;arcSize=50;align=center;verticalAlign=middle;strokeWidth=1;autosize=1;spacing=4;treeFolding=1;treeMoving=1;newEdgeStyle={&quot;edgeStyle&quot;:&quot;entityRelationEdgeStyle&quot;,&quot;startArrow&quot;:&quot;none&quot;,&quot;endArrow&quot;:&quot;none&quot;,&quot;segment&quot;:10,&quot;curved&quot;:1};fillColor=#dae8fc;strokeColor=#6c8ebf;" parent="WQIkQvsgn9cU8Fvu_Him-0" vertex="1">
                    &#xa;
                    <mxGeometry x="247.5" y="110" width="90" height="30" as="geometry"/>
                    &#xa;
                </mxCell>
                &#xa;
                <mxCell id="WQIkQvsgn9cU8Fvu_Him-30" value="" style="edgeStyle=entityRelationEdgeStyle;startArrow=none;endArrow=none;segment=10;curved=1;" parent="WQIkQvsgn9cU8Fvu_Him-0" source="WQIkQvsgn9cU8Fvu_Him-29" target="WQIkQvsgn9cU8Fvu_Him-31" edge="1">
                    &#xa;
                    <mxGeometry relative="1" as="geometry">
                        &#xa;
                        <mxPoint x="327.5" y="330" as="sourcePoint"/>
                        &#xa;
                    </mxGeometry>
                    &#xa;
                </mxCell>
                &#xa;
                <mxCell id="WQIkQvsgn9cU8Fvu_Him-31" value=".env" style="whiteSpace=wrap;html=1;rounded=1;arcSize=50;align=center;verticalAlign=middle;strokeWidth=1;autosize=1;spacing=4;treeFolding=1;treeMoving=1;newEdgeStyle={&quot;edgeStyle&quot;:&quot;entityRelationEdgeStyle&quot;,&quot;startArrow&quot;:&quot;none&quot;,&quot;endArrow&quot;:&quot;none&quot;,&quot;segment&quot;:10,&quot;curved&quot;:1};fillColor=#dae8fc;strokeColor=#6c8ebf;" parent="WQIkQvsgn9cU8Fvu_Him-0" vertex="1">
                    &#xa;
                    <mxGeometry x="417.5" y="110" width="60" height="30" as="geometry"/>
                    &#xa;
                </mxCell>
                &#xa;
                <mxCell id="stc8RY6NLwS7BSF3Llrz-0" value="" style="edgeStyle=entityRelationEdgeStyle;startArrow=none;endArrow=none;segment=10;curved=1;" parent="WQIkQvsgn9cU8Fvu_Him-0" source="WQIkQvsgn9cU8Fvu_Him-5" target="stc8RY6NLwS7BSF3Llrz-1" edge="1">
                    &#xa;
                    <mxGeometry relative="1" as="geometry">
                        &#xa;
                        <mxPoint x="327.5" y="350" as="sourcePoint"/>
                        &#xa;
                    </mxGeometry>
                    &#xa;
                </mxCell>
                &#xa;
                <mxCell id="stc8RY6NLwS7BSF3Llrz-1" value="片系ダウン" style="whiteSpace=wrap;html=1;rounded=1;arcSize=50;align=center;verticalAlign=middle;strokeWidth=1;autosize=1;spacing=4;treeFolding=1;treeMoving=1;newEdgeStyle={&quot;edgeStyle&quot;:&quot;entityRelationEdgeStyle&quot;,&quot;startArrow&quot;:&quot;none&quot;,&quot;endArrow&quot;:&quot;none&quot;,&quot;segment&quot;:10,&quot;curved&quot;:1};fillColor=#f8cecc;strokeColor=#b85450;" parent="WQIkQvsgn9cU8Fvu_Him-0" vertex="1">
                    &#xa;
                    <mxGeometry x="237.5" y="200" width="100" height="30" as="geometry"/>
                    &#xa;
                </mxCell>
                &#xa;
                <mxCell id="stc8RY6NLwS7BSF3Llrz-2" value="" style="edgeStyle=entityRelationEdgeStyle;startArrow=none;endArrow=none;segment=10;curved=1;" parent="WQIkQvsgn9cU8Fvu_Him-0" source="stc8RY6NLwS7BSF3Llrz-1" target="stc8RY6NLwS7BSF3Llrz-3" edge="1">
                    &#xa;
                    <mxGeometry relative="1" as="geometry">
                        &#xa;
                        <mxPoint x="322.5" y="350" as="sourcePoint"/>
                        &#xa;
                    </mxGeometry>
                    &#xa;
                </mxCell>
                &#xa;
                <mxCell id="stc8RY6NLwS7BSF3Llrz-3" value="Primaryダウン" style="whiteSpace=wrap;html=1;rounded=1;arcSize=50;align=center;verticalAlign=middle;strokeWidth=1;autosize=1;spacing=4;treeFolding=1;treeMoving=1;newEdgeStyle={&quot;edgeStyle&quot;:&quot;entityRelationEdgeStyle&quot;,&quot;startArrow&quot;:&quot;none&quot;,&quot;endArrow&quot;:&quot;none&quot;,&quot;segment&quot;:10,&quot;curved&quot;:1};fillColor=#f8cecc;strokeColor=#b85450;" parent="WQIkQvsgn9cU8Fvu_Him-0" vertex="1">
                    &#xa;
                    <mxGeometry x="392.5" y="170" width="120" height="30" as="geometry"/>
                    &#xa;
                </mxCell>
                &#xa;
                <mxCell id="stc8RY6NLwS7BSF3Llrz-4" value="" style="edgeStyle=entityRelationEdgeStyle;startArrow=none;endArrow=none;segment=10;curved=1;" parent="WQIkQvsgn9cU8Fvu_Him-0" source="stc8RY6NLwS7BSF3Llrz-1" target="stc8RY6NLwS7BSF3Llrz-5" edge="1">
                    &#xa;
                    <mxGeometry relative="1" as="geometry">
                        &#xa;
                        <mxPoint x="502.5" y="325" as="sourcePoint"/>
                        &#xa;
                    </mxGeometry>
                    &#xa;
                </mxCell>
                &#xa;
                <mxCell id="stc8RY6NLwS7BSF3Llrz-5" value="Secondaryダウン" style="whiteSpace=wrap;html=1;rounded=1;arcSize=50;align=center;verticalAlign=middle;strokeWidth=1;autosize=1;spacing=4;treeFolding=1;treeMoving=1;newEdgeStyle={&quot;edgeStyle&quot;:&quot;entityRelationEdgeStyle&quot;,&quot;startArrow&quot;:&quot;none&quot;,&quot;endArrow&quot;:&quot;none&quot;,&quot;segment&quot;:10,&quot;curved&quot;:1};fillColor=#f8cecc;strokeColor=#b85450;" parent="WQIkQvsgn9cU8Fvu_Him-0" vertex="1">
                    &#xa;
                    <mxGeometry x="387.5" y="200" width="130" height="30" as="geometry"/>
                    &#xa;
                </mxCell>
                &#xa;
                <mxCell id="stc8RY6NLwS7BSF3Llrz-6" value="" style="edgeStyle=entityRelationEdgeStyle;startArrow=none;endArrow=none;segment=10;curved=1;exitX=1;exitY=0.5;exitDx=0;exitDy=0;" parent="WQIkQvsgn9cU8Fvu_Him-0" source="WQIkQvsgn9cU8Fvu_Him-5" target="stc8RY6NLwS7BSF3Llrz-7" edge="1">
                    &#xa;
                    <mxGeometry relative="1" as="geometry">
                        &#xa;
                        <mxPoint x="502.5" y="325" as="sourcePoint"/>
                        &#xa;
                    </mxGeometry>
                    &#xa;
                </mxCell>
                &#xa;
                <mxCell id="stc8RY6NLwS7BSF3Llrz-7" value="リカバリ" style="whiteSpace=wrap;html=1;rounded=1;arcSize=50;align=center;verticalAlign=middle;strokeWidth=1;autosize=1;spacing=4;treeFolding=1;treeMoving=1;newEdgeStyle={&quot;edgeStyle&quot;:&quot;entityRelationEdgeStyle&quot;,&quot;startArrow&quot;:&quot;none&quot;,&quot;endArrow&quot;:&quot;none&quot;,&quot;segment&quot;:10,&quot;curved&quot;:1};fillColor=#fff2cc;strokeColor=#d6b656;" parent="WQIkQvsgn9cU8Fvu_Him-0" vertex="1">
                    &#xa;
                    <mxGeometry x="247.5" y="330" width="90" height="30" as="geometry"/>
                    &#xa;
                </mxCell>
                &#xa;
                <mxCell id="Db5CHAii55StEst4pOfU-2" value="" style="edgeStyle=entityRelationEdgeStyle;startArrow=none;endArrow=none;segment=10;curved=1;" parent="WQIkQvsgn9cU8Fvu_Him-0" source="stc8RY6NLwS7BSF3Llrz-3" target="Db5CHAii55StEst4pOfU-3" edge="1">
                    &#xa;
                    <mxGeometry relative="1" as="geometry">
                        &#xa;
                        <mxPoint x="677.5" y="295" as="sourcePoint"/>
                        &#xa;
                    </mxGeometry>
                    &#xa;
                </mxCell>
                &#xa;
                <mxCell id="Db5CHAii55StEst4pOfU-3" value="コンテナ Stop" style="whiteSpace=wrap;html=1;rounded=1;arcSize=50;align=center;verticalAlign=middle;strokeWidth=1;autosize=1;spacing=4;treeFolding=1;treeMoving=1;newEdgeStyle={&quot;edgeStyle&quot;:&quot;entityRelationEdgeStyle&quot;,&quot;startArrow&quot;:&quot;none&quot;,&quot;endArrow&quot;:&quot;none&quot;,&quot;segment&quot;:10,&quot;curved&quot;:1};fillColor=#f8cecc;strokeColor=#b85450;" parent="WQIkQvsgn9cU8Fvu_Him-0" vertex="1">
                    &#xa;
                    <mxGeometry x="572.5" y="130" width="120" height="30" as="geometry"/>
                    &#xa;
                </mxCell>
                &#xa;
                <mxCell id="Db5CHAii55StEst4pOfU-4" value="" style="edgeStyle=entityRelationEdgeStyle;startArrow=none;endArrow=none;segment=10;curved=1;" parent="WQIkQvsgn9cU8Fvu_Him-0" source="stc8RY6NLwS7BSF3Llrz-3" target="Db5CHAii55StEst4pOfU-5" edge="1">
                    &#xa;
                    <mxGeometry relative="1" as="geometry">
                        &#xa;
                        <mxPoint x="677.5" y="295" as="sourcePoint"/>
                        &#xa;
                    </mxGeometry>
                    &#xa;
                </mxCell>
                &#xa;
                <mxCell id="Db5CHAii55StEst4pOfU-5" value="コンテナ Down" style="whiteSpace=wrap;html=1;rounded=1;arcSize=50;align=center;verticalAlign=middle;strokeWidth=1;autosize=1;spacing=4;treeFolding=1;treeMoving=1;newEdgeStyle={&quot;edgeStyle&quot;:&quot;entityRelationEdgeStyle&quot;,&quot;startArrow&quot;:&quot;none&quot;,&quot;endArrow&quot;:&quot;none&quot;,&quot;segment&quot;:10,&quot;curved&quot;:1};fillColor=#f8cecc;strokeColor=#b85450;" parent="WQIkQvsgn9cU8Fvu_Him-0" vertex="1">
                    &#xa;
                    <mxGeometry x="572.5" y="160" width="120" height="30" as="geometry"/>
                    &#xa;
                </mxCell>
                &#xa;
                <mxCell id="Db5CHAii55StEst4pOfU-6" value="" style="edgeStyle=entityRelationEdgeStyle;startArrow=none;endArrow=none;segment=10;curved=1;" parent="WQIkQvsgn9cU8Fvu_Him-0" source="stc8RY6NLwS7BSF3Llrz-1" target="Db5CHAii55StEst4pOfU-7" edge="1">
                    &#xa;
                    <mxGeometry relative="1" as="geometry">
                        &#xa;
                        <mxPoint x="502.5" y="325" as="sourcePoint"/>
                        &#xa;
                    </mxGeometry>
                    &#xa;
                </mxCell>
                &#xa;
                <mxCell id="Db5CHAii55StEst4pOfU-7" value="問題" style="whiteSpace=wrap;html=1;rounded=1;arcSize=50;align=center;verticalAlign=middle;strokeWidth=1;autosize=1;spacing=4;treeFolding=1;treeMoving=1;newEdgeStyle={&quot;edgeStyle&quot;:&quot;entityRelationEdgeStyle&quot;,&quot;startArrow&quot;:&quot;none&quot;,&quot;endArrow&quot;:&quot;none&quot;,&quot;segment&quot;:10,&quot;curved&quot;:1};fillColor=#fff2cc;strokeColor=#d6b656;" parent="WQIkQvsgn9cU8Fvu_Him-0" vertex="1">
                    &#xa;
                    <mxGeometry x="397.5" y="265" width="60" height="30" as="geometry"/>
                    &#xa;
                </mxCell>
                &#xa;
                <mxCell id="Db5CHAii55StEst4pOfU-8" value="" style="edgeStyle=entityRelationEdgeStyle;startArrow=none;endArrow=none;segment=10;curved=1;fillColor=#fff2cc;strokeColor=#d6b656;" parent="WQIkQvsgn9cU8Fvu_Him-0" source="Db5CHAii55StEst4pOfU-7" target="Db5CHAii55StEst4pOfU-9" edge="1">
                    &#xa;
                    <mxGeometry relative="1" as="geometry">
                        &#xa;
                        <mxPoint x="502.5" y="301" as="sourcePoint"/>
                        &#xa;
                    </mxGeometry>
                    &#xa;
                </mxCell>
                &#xa;
                <mxCell id="Db5CHAii55StEst4pOfU-9" value="ログアウト -&amp;gt; ログイン -&amp;gt; amlbcookie &quot;01&quot;" style="whiteSpace=wrap;html=1;rounded=1;arcSize=50;align=center;verticalAlign=middle;strokeWidth=1;autosize=1;spacing=4;treeFolding=1;treeMoving=1;newEdgeStyle={&quot;edgeStyle&quot;:&quot;entityRelationEdgeStyle&quot;,&quot;startArrow&quot;:&quot;none&quot;,&quot;endArrow&quot;:&quot;none&quot;,&quot;segment&quot;:10,&quot;curved&quot;:1};fillColor=#fff2cc;strokeColor=#d6b656;" parent="WQIkQvsgn9cU8Fvu_Him-0" vertex="1">
                    &#xa;
                    <mxGeometry x="542.5" y="300" width="270" height="30" as="geometry"/>
                    &#xa;
                </mxCell>
                &#xa;
                <mxCell id="Db5CHAii55StEst4pOfU-10" value="" style="edgeStyle=entityRelationEdgeStyle;startArrow=none;endArrow=none;segment=10;curved=1;fillColor=#fff2cc;strokeColor=#d6b656;" parent="WQIkQvsgn9cU8Fvu_Him-0" source="Db5CHAii55StEst4pOfU-7" target="Db5CHAii55StEst4pOfU-11" edge="1">
                    &#xa;
                    <mxGeometry relative="1" as="geometry">
                        &#xa;
                        <mxPoint x="642.5" y="390" as="sourcePoint"/>
                        &#xa;
                    </mxGeometry>
                    &#xa;
                </mxCell>
                &#xa;
                <mxCell id="Db5CHAii55StEst4pOfU-11" value="Pause -&amp;gt; レプリケーションでハング？" style="whiteSpace=wrap;html=1;rounded=1;arcSize=50;align=center;verticalAlign=middle;strokeWidth=1;autosize=1;spacing=4;treeFolding=1;treeMoving=1;newEdgeStyle={&quot;edgeStyle&quot;:&quot;entityRelationEdgeStyle&quot;,&quot;startArrow&quot;:&quot;none&quot;,&quot;endArrow&quot;:&quot;none&quot;,&quot;segment&quot;:10,&quot;curved&quot;:1};fillColor=#f8cecc;strokeColor=#b85450;" parent="WQIkQvsgn9cU8Fvu_Him-0" vertex="1">
                    &#xa;
                    <mxGeometry x="542.5" y="250" width="250" height="30" as="geometry"/>
                    &#xa;
                </mxCell>
                &#xa;
                <mxCell id="9GP6qR2dtNIiDh1pgLkh-0" value="" style="edgeStyle=entityRelationEdgeStyle;startArrow=none;endArrow=none;segment=10;curved=1;exitX=1;exitY=0.5;exitDx=0;exitDy=0;" parent="WQIkQvsgn9cU8Fvu_Him-0" source="stc8RY6NLwS7BSF3Llrz-7" target="9GP6qR2dtNIiDh1pgLkh-1" edge="1">
                    &#xa;
                    <mxGeometry relative="1" as="geometry">
                        &#xa;
                        <mxPoint x="332.5" y="356.5" as="sourcePoint"/>
                        &#xa;
                    </mxGeometry>
                    &#xa;
                </mxCell>
                &#xa;
                <mxCell id="9GP6qR2dtNIiDh1pgLkh-1" value="手動で再起動" style="whiteSpace=wrap;html=1;rounded=1;arcSize=50;align=center;verticalAlign=middle;strokeWidth=1;autosize=1;spacing=4;treeFolding=1;treeMoving=1;newEdgeStyle={&quot;edgeStyle&quot;:&quot;entityRelationEdgeStyle&quot;,&quot;startArrow&quot;:&quot;none&quot;,&quot;endArrow&quot;:&quot;none&quot;,&quot;segment&quot;:10,&quot;curved&quot;:1};fillColor=#dae8fc;strokeColor=#6c8ebf;" parent="WQIkQvsgn9cU8Fvu_Him-0" vertex="1">
                    &#xa;
                    <mxGeometry x="387.5" y="320" width="110" height="30" as="geometry"/>
                    &#xa;
                </mxCell>
                &#xa;
                <mxCell id="9GP6qR2dtNIiDh1pgLkh-2" value="" style="edgeStyle=entityRelationEdgeStyle;startArrow=none;endArrow=none;segment=10;curved=1;exitX=1;exitY=0.5;exitDx=0;exitDy=0;" parent="WQIkQvsgn9cU8Fvu_Him-0" source="stc8RY6NLwS7BSF3Llrz-7" target="9GP6qR2dtNIiDh1pgLkh-3" edge="1">
                    &#xa;
                    <mxGeometry relative="1" as="geometry">
                        &#xa;
                        <mxPoint x="502.5" y="435" as="sourcePoint"/>
                        &#xa;
                    </mxGeometry>
                    &#xa;
                </mxCell>
                &#xa;
                <mxCell id="9GP6qR2dtNIiDh1pgLkh-3" value="自動で再起動" style="whiteSpace=wrap;html=1;rounded=1;arcSize=50;align=center;verticalAlign=middle;strokeWidth=1;autosize=1;spacing=4;treeFolding=1;treeMoving=1;newEdgeStyle={&quot;edgeStyle&quot;:&quot;entityRelationEdgeStyle&quot;,&quot;startArrow&quot;:&quot;none&quot;,&quot;endArrow&quot;:&quot;none&quot;,&quot;segment&quot;:10,&quot;curved&quot;:1};fillColor=#fff2cc;strokeColor=#d6b656;" parent="WQIkQvsgn9cU8Fvu_Him-0" vertex="1">
                    &#xa;
                    <mxGeometry x="387.5" y="350" width="110" height="30" as="geometry"/>
                    &#xa;
                </mxCell>
                &#xa;
                <mxCell id="9GP6qR2dtNIiDh1pgLkh-4" value="" style="edgeStyle=entityRelationEdgeStyle;startArrow=none;endArrow=none;segment=10;curved=1;fillColor=#fff2cc;strokeColor=#d6b656;" parent="WQIkQvsgn9cU8Fvu_Him-0" source="Db5CHAii55StEst4pOfU-11" target="9GP6qR2dtNIiDh1pgLkh-5" edge="1">
                    &#xa;
                    <mxGeometry relative="1" as="geometry">
                        &#xa;
                        <mxPoint x="622.5" y="390" as="sourcePoint"/>
                        &#xa;
                    </mxGeometry>
                    &#xa;
                </mxCell>
                &#xa;
                <mxCell id="9GP6qR2dtNIiDh1pgLkh-5" value="Secondary Stop" style="whiteSpace=wrap;html=1;rounded=1;arcSize=50;align=center;verticalAlign=middle;strokeWidth=1;autosize=1;spacing=4;treeFolding=1;treeMoving=1;newEdgeStyle={&quot;edgeStyle&quot;:&quot;entityRelationEdgeStyle&quot;,&quot;startArrow&quot;:&quot;none&quot;,&quot;endArrow&quot;:&quot;none&quot;,&quot;segment&quot;:10,&quot;curved&quot;:1};fillColor=#dae8fc;strokeColor=#6c8ebf;" parent="WQIkQvsgn9cU8Fvu_Him-0" vertex="1">
                    &#xa;
                    <mxGeometry x="860" y="80" width="130" height="30" as="geometry"/>
                    &#xa;
                </mxCell>
                &#xa;
                <mxCell id="9GP6qR2dtNIiDh1pgLkh-6" value="" style="edgeStyle=entityRelationEdgeStyle;startArrow=none;endArrow=none;segment=10;curved=1;fillColor=#fff2cc;strokeColor=#d6b656;" parent="WQIkQvsgn9cU8Fvu_Him-0" source="Db5CHAii55StEst4pOfU-11" target="9GP6qR2dtNIiDh1pgLkh-7" edge="1">
                    &#xa;
                    <mxGeometry relative="1" as="geometry">
                        &#xa;
                        <mxPoint x="957.5" y="375" as="sourcePoint"/>
                        &#xa;
                    </mxGeometry>
                    &#xa;
                </mxCell>
                &#xa;
                <mxCell id="9GP6qR2dtNIiDh1pgLkh-7" value="01 アクセス -&amp;gt; Primary -&amp;gt; OK" style="whiteSpace=wrap;html=1;rounded=1;arcSize=50;align=center;verticalAlign=middle;strokeWidth=1;autosize=1;spacing=4;treeFolding=1;treeMoving=1;newEdgeStyle={&quot;edgeStyle&quot;:&quot;entityRelationEdgeStyle&quot;,&quot;startArrow&quot;:&quot;none&quot;,&quot;endArrow&quot;:&quot;none&quot;,&quot;segment&quot;:10,&quot;curved&quot;:1};fillColor=#dae8fc;strokeColor=#6c8ebf;" parent="WQIkQvsgn9cU8Fvu_Him-0" vertex="1">
                    &#xa;
                    <mxGeometry x="855" y="110" width="200" height="30" as="geometry"/>
                    &#xa;
                </mxCell>
                &#xa;
                <mxCell id="9GP6qR2dtNIiDh1pgLkh-8" value="" style="edgeStyle=entityRelationEdgeStyle;startArrow=none;endArrow=none;segment=10;curved=1;fillColor=#fff2cc;strokeColor=#d6b656;" parent="WQIkQvsgn9cU8Fvu_Him-0" source="Db5CHAii55StEst4pOfU-11" target="9GP6qR2dtNIiDh1pgLkh-9" edge="1">
                    &#xa;
                    <mxGeometry relative="1" as="geometry">
                        &#xa;
                        <mxPoint x="957.5" y="375" as="sourcePoint"/>
                        &#xa;
                    </mxGeometry>
                    &#xa;
                </mxCell>
                &#xa;
                <mxCell id="9GP6qR2dtNIiDh1pgLkh-9" value="02 アクセス -&amp;gt; Secondary -&amp;gt; ハング" style="whiteSpace=wrap;html=1;rounded=1;arcSize=50;align=center;verticalAlign=middle;strokeWidth=1;autosize=1;spacing=4;treeFolding=1;treeMoving=1;newEdgeStyle={&quot;edgeStyle&quot;:&quot;entityRelationEdgeStyle&quot;,&quot;startArrow&quot;:&quot;none&quot;,&quot;endArrow&quot;:&quot;none&quot;,&quot;segment&quot;:10,&quot;curved&quot;:1};fillColor=#f8cecc;strokeColor=#b85450;" parent="WQIkQvsgn9cU8Fvu_Him-0" vertex="1">
                    &#xa;
                    <mxGeometry x="855" y="140" width="230" height="30" as="geometry"/>
                    &#xa;
                </mxCell>
                &#xa;
                <mxCell id="9GP6qR2dtNIiDh1pgLkh-10" value="" style="edgeStyle=entityRelationEdgeStyle;startArrow=none;endArrow=none;segment=10;curved=1;fillColor=#fff2cc;strokeColor=#d6b656;" parent="WQIkQvsgn9cU8Fvu_Him-0" source="Db5CHAii55StEst4pOfU-11" target="9GP6qR2dtNIiDh1pgLkh-11" edge="1">
                    &#xa;
                    <mxGeometry relative="1" as="geometry">
                        &#xa;
                        <mxPoint x="957.5" y="375" as="sourcePoint"/>
                        &#xa;
                    </mxGeometry>
                    &#xa;
                </mxCell>
                &#xa;
                <mxCell id="9GP6qR2dtNIiDh1pgLkh-11" value="01 アクセス -&amp;gt; Primary -&amp;gt; ハング" style="whiteSpace=wrap;html=1;rounded=1;arcSize=50;align=center;verticalAlign=middle;strokeWidth=1;autosize=1;spacing=4;treeFolding=1;treeMoving=1;newEdgeStyle={&quot;edgeStyle&quot;:&quot;entityRelationEdgeStyle&quot;,&quot;startArrow&quot;:&quot;none&quot;,&quot;endArrow&quot;:&quot;none&quot;,&quot;segment&quot;:10,&quot;curved&quot;:1};fillColor=#f8cecc;strokeColor=#b85450;" parent="WQIkQvsgn9cU8Fvu_Him-0" vertex="1">
                    &#xa;
                    <mxGeometry x="860" y="170" width="220" height="30" as="geometry"/>
                    &#xa;
                </mxCell>
                &#xa;
                <mxCell id="9GP6qR2dtNIiDh1pgLkh-12" value="" style="edgeStyle=entityRelationEdgeStyle;startArrow=none;endArrow=none;segment=10;curved=1;fillColor=#fff2cc;strokeColor=#d6b656;" parent="WQIkQvsgn9cU8Fvu_Him-0" source="Db5CHAii55StEst4pOfU-11" target="9GP6qR2dtNIiDh1pgLkh-13" edge="1">
                    &#xa;
                    <mxGeometry relative="1" as="geometry">
                        &#xa;
                        <mxPoint x="957.5" y="375" as="sourcePoint"/>
                        &#xa;
                    </mxGeometry>
                    &#xa;
                </mxCell>
                &#xa;
                <mxCell id="9GP6qR2dtNIiDh1pgLkh-13" value="Apache エラー検知 -&amp;gt; HC ERR" style="whiteSpace=wrap;html=1;rounded=1;arcSize=50;align=center;verticalAlign=middle;strokeWidth=1;autosize=1;spacing=4;treeFolding=1;treeMoving=1;newEdgeStyle={&quot;edgeStyle&quot;:&quot;entityRelationEdgeStyle&quot;,&quot;startArrow&quot;:&quot;none&quot;,&quot;endArrow&quot;:&quot;none&quot;,&quot;segment&quot;:10,&quot;curved&quot;:1};fillColor=#dae8fc;strokeColor=#6c8ebf;" parent="WQIkQvsgn9cU8Fvu_Him-0" vertex="1">
                    &#xa;
                    <mxGeometry x="855" y="200" width="210" height="30" as="geometry"/>
                    &#xa;
                </mxCell>
                &#xa;
                <mxCell id="9GP6qR2dtNIiDh1pgLkh-14" value="" style="edgeStyle=entityRelationEdgeStyle;startArrow=none;endArrow=none;segment=10;curved=1;fillColor=#fff2cc;strokeColor=#d6b656;" parent="WQIkQvsgn9cU8Fvu_Him-0" source="Db5CHAii55StEst4pOfU-11" target="9GP6qR2dtNIiDh1pgLkh-15" edge="1">
                    &#xa;
                    <mxGeometry relative="1" as="geometry">
                        &#xa;
                        <mxPoint x="957.5" y="375" as="sourcePoint"/>
                        &#xa;
                    </mxGeometry>
                    &#xa;
                </mxCell>
                &#xa;
                <mxCell id="9GP6qR2dtNIiDh1pgLkh-15" value="全OpenAM Stop" style="whiteSpace=wrap;html=1;rounded=1;arcSize=50;align=center;verticalAlign=middle;strokeWidth=1;autosize=1;spacing=4;treeFolding=1;treeMoving=1;newEdgeStyle={&quot;edgeStyle&quot;:&quot;entityRelationEdgeStyle&quot;,&quot;startArrow&quot;:&quot;none&quot;,&quot;endArrow&quot;:&quot;none&quot;,&quot;segment&quot;:10,&quot;curved&quot;:1};fillColor=#dae8fc;strokeColor=#6c8ebf;" parent="WQIkQvsgn9cU8Fvu_Him-0" vertex="1">
                    &#xa;
                    <mxGeometry x="856" y="230" width="130" height="30" as="geometry"/>
                    &#xa;
                </mxCell>
                &#xa;
                <mxCell id="9GP6qR2dtNIiDh1pgLkh-16" value="" style="edgeStyle=entityRelationEdgeStyle;startArrow=none;endArrow=none;segment=10;curved=1;fillColor=#fff2cc;strokeColor=#d6b656;" parent="WQIkQvsgn9cU8Fvu_Him-0" source="Db5CHAii55StEst4pOfU-11" target="9GP6qR2dtNIiDh1pgLkh-17" edge="1">
                    &#xa;
                    <mxGeometry relative="1" as="geometry">
                        &#xa;
                        <mxPoint x="957.5" y="375" as="sourcePoint"/>
                        &#xa;
                    </mxGeometry>
                    &#xa;
                </mxCell>
                &#xa;
                <mxCell id="9GP6qR2dtNIiDh1pgLkh-17" value="Primary Start" style="whiteSpace=wrap;html=1;rounded=1;arcSize=50;align=center;verticalAlign=middle;strokeWidth=1;autosize=1;spacing=4;treeFolding=1;treeMoving=1;newEdgeStyle={&quot;edgeStyle&quot;:&quot;entityRelationEdgeStyle&quot;,&quot;startArrow&quot;:&quot;none&quot;,&quot;endArrow&quot;:&quot;none&quot;,&quot;segment&quot;:10,&quot;curved&quot;:1};fillColor=#dae8fc;strokeColor=#6c8ebf;" parent="WQIkQvsgn9cU8Fvu_Him-0" vertex="1">
                    &#xa;
                    <mxGeometry x="860" y="260" width="110" height="30" as="geometry"/>
                    &#xa;
                </mxCell>
                &#xa;
                <mxCell id="9GP6qR2dtNIiDh1pgLkh-18" value="01 アクセス -&amp;gt; Primary -&amp;gt; OK" style="whiteSpace=wrap;html=1;rounded=1;arcSize=50;align=center;verticalAlign=middle;strokeWidth=1;autosize=1;spacing=4;treeFolding=1;treeMoving=1;newEdgeStyle={&quot;edgeStyle&quot;:&quot;entityRelationEdgeStyle&quot;,&quot;startArrow&quot;:&quot;none&quot;,&quot;endArrow&quot;:&quot;none&quot;,&quot;segment&quot;:10,&quot;curved&quot;:1};fillColor=#dae8fc;strokeColor=#6c8ebf;" parent="WQIkQvsgn9cU8Fvu_Him-0" vertex="1">
                    &#xa;
                    <mxGeometry x="866" y="290" width="200" height="30" as="geometry"/>
                    &#xa;
                </mxCell>
                &#xa;
                <mxCell id="9GP6qR2dtNIiDh1pgLkh-19" value="" style="edgeStyle=entityRelationEdgeStyle;startArrow=none;endArrow=none;segment=10;curved=1;fillColor=#fff2cc;strokeColor=#d6b656;" parent="WQIkQvsgn9cU8Fvu_Him-0" source="Db5CHAii55StEst4pOfU-11" target="9GP6qR2dtNIiDh1pgLkh-18" edge="1">
                    &#xa;
                    <mxGeometry relative="1" as="geometry">
                        &#xa;
                        <mxPoint x="792.5" y="265" as="sourcePoint"/>
                        &#xa;
                        <mxPoint x="869" y="315" as="targetPoint"/>
                        &#xa;
                    </mxGeometry>
                    &#xa;
                </mxCell>
                &#xa;
                <mxCell id="9GP6qR2dtNIiDh1pgLkh-20" value="LB Restart -&amp;gt; OK" style="whiteSpace=wrap;html=1;rounded=1;arcSize=50;align=center;verticalAlign=middle;strokeWidth=1;autosize=1;spacing=4;treeFolding=1;treeMoving=1;newEdgeStyle={&quot;edgeStyle&quot;:&quot;entityRelationEdgeStyle&quot;,&quot;startArrow&quot;:&quot;none&quot;,&quot;endArrow&quot;:&quot;none&quot;,&quot;segment&quot;:10,&quot;curved&quot;:1};fillColor=#dae8fc;strokeColor=#6c8ebf;" parent="WQIkQvsgn9cU8Fvu_Him-0" vertex="1">
                    &#xa;
                    <mxGeometry x="866" y="320" width="130" height="30" as="geometry"/>
                    &#xa;
                </mxCell>
                &#xa;
                <mxCell id="9GP6qR2dtNIiDh1pgLkh-21" value="" style="edgeStyle=entityRelationEdgeStyle;startArrow=none;endArrow=none;segment=10;curved=1;fillColor=#fff2cc;strokeColor=#d6b656;" parent="WQIkQvsgn9cU8Fvu_Him-0" source="Db5CHAii55StEst4pOfU-11" target="9GP6qR2dtNIiDh1pgLkh-20" edge="1">
                    &#xa;
                    <mxGeometry relative="1" as="geometry">
                        &#xa;
                        <mxPoint x="792.5" y="265" as="sourcePoint"/>
                        &#xa;
                        <mxPoint x="864" y="285" as="targetPoint"/>
                        &#xa;
                    </mxGeometry>
                    &#xa;
                </mxCell>
                &#xa;
                <mxCell id="9GP6qR2dtNIiDh1pgLkh-24" value="02 アクセス -&amp;gt; Secondary -&amp;gt; OK" style="whiteSpace=wrap;html=1;rounded=1;arcSize=50;align=center;verticalAlign=middle;strokeWidth=1;autosize=1;spacing=4;treeFolding=1;treeMoving=1;newEdgeStyle={&quot;edgeStyle&quot;:&quot;entityRelationEdgeStyle&quot;,&quot;startArrow&quot;:&quot;none&quot;,&quot;endArrow&quot;:&quot;none&quot;,&quot;segment&quot;:10,&quot;curved&quot;:1};fillColor=#dae8fc;strokeColor=#6c8ebf;" parent="WQIkQvsgn9cU8Fvu_Him-0" vertex="1">
                    &#xa;
                    <mxGeometry x="860" y="350" width="220" height="30" as="geometry"/>
                    &#xa;
                </mxCell>
                &#xa;
                <mxCell id="9GP6qR2dtNIiDh1pgLkh-25" value="" style="edgeStyle=entityRelationEdgeStyle;startArrow=none;endArrow=none;segment=10;curved=1;fillColor=#fff2cc;strokeColor=#d6b656;" parent="WQIkQvsgn9cU8Fvu_Him-0" source="Db5CHAii55StEst4pOfU-11" target="9GP6qR2dtNIiDh1pgLkh-24" edge="1">
                    &#xa;
                    <mxGeometry relative="1" as="geometry">
                        &#xa;
                        <mxPoint x="792.5" y="265" as="sourcePoint"/>
                        &#xa;
                        <mxPoint x="855" y="155" as="targetPoint"/>
                        &#xa;
                    </mxGeometry>
                    &#xa;
                </mxCell>
                &#xa;
                <mxCell id="9GP6qR2dtNIiDh1pgLkh-26" value="" style="edgeStyle=entityRelationEdgeStyle;startArrow=none;endArrow=none;segment=10;curved=1;" parent="WQIkQvsgn9cU8Fvu_Him-0" source="stc8RY6NLwS7BSF3Llrz-3" target="9GP6qR2dtNIiDh1pgLkh-27" edge="1">
                    &#xa;
                    <mxGeometry relative="1" as="geometry">
                        &#xa;
                        <mxPoint x="677.5" y="295" as="sourcePoint"/>
                        &#xa;
                    </mxGeometry>
                    &#xa;
                </mxCell>
                &#xa;
                <mxCell id="9GP6qR2dtNIiDh1pgLkh-27" value="Tomcat Stop" style="whiteSpace=wrap;html=1;rounded=1;arcSize=50;align=center;verticalAlign=middle;strokeWidth=1;autosize=1;spacing=4;treeFolding=1;treeMoving=1;newEdgeStyle={&quot;edgeStyle&quot;:&quot;entityRelationEdgeStyle&quot;,&quot;startArrow&quot;:&quot;none&quot;,&quot;endArrow&quot;:&quot;none&quot;,&quot;segment&quot;:10,&quot;curved&quot;:1};fillColor=#f8cecc;strokeColor=#b85450;" parent="WQIkQvsgn9cU8Fvu_Him-0" vertex="1">
                    &#xa;
                    <mxGeometry x="572.5" y="190" width="110" height="30" as="geometry"/>
                    &#xa;
                </mxCell>
                &#xa;
            </root>
            &#xa;
        </mxGraphModel>
        &#xa;
    </diagram>
    <diagram id="muqXsgOTcrFp4jsO-d6J" name="3-network">
        &#xa;
        <mxGraphModel dx="963" dy="649" grid="1" gridSize="10" guides="1" tooltips="1" connect="1" arrows="1" fold="1" page="1" pageScale="1" pageWidth="827" pageHeight="1169" math="0" shadow="0">
            &#xa;
            <root>
                &#xa;
                <mxCell id="A0845nAOBM2mKrXy-4zn-0"/>
                &#xa;
                <mxCell id="A0845nAOBM2mKrXy-4zn-1" parent="A0845nAOBM2mKrXy-4zn-0"/>
                &#xa;
                <mxCell id="7-Hv_RHjKqpD1DXGuA2B-0" value="openam" style="shape=folder;fontStyle=1;spacingTop=10;tabWidth=40;tabHeight=14;tabPosition=left;html=1;labelPosition=center;verticalLabelPosition=top;align=center;verticalAlign=bottom;" parent="A0845nAOBM2mKrXy-4zn-1" vertex="1">
                    &#xa;
                    <mxGeometry x="240" y="80" width="250" height="200" as="geometry"/>
                    &#xa;
                </mxCell>
                &#xa;
                <mxCell id="7-Hv_RHjKqpD1DXGuA2B-2" value="am1&#10;am1-extdj&#10;am1-debug" style="shape=module;align=left;spacingLeft=20;align=center;verticalAlign=top;" parent="A0845nAOBM2mKrXy-4zn-1" vertex="1">
                    &#xa;
                    <mxGeometry x="374" y="110" width="100" height="50" as="geometry"/>
                    &#xa;
                </mxCell>
                &#xa;
                <mxCell id="7-Hv_RHjKqpD1DXGuA2B-3" value="am2&#10;am2-extdj&#10;am2-debug" style="shape=module;align=left;spacingLeft=20;align=center;verticalAlign=top;" parent="A0845nAOBM2mKrXy-4zn-1" vertex="1">
                    &#xa;
                    <mxGeometry x="374" y="210" width="100" height="50" as="geometry"/>
                    &#xa;
                </mxCell>
                &#xa;
                <mxCell id="7-Hv_RHjKqpD1DXGuA2B-4" value="amlb&#10;amlb-apache&#10;amlb-nginx" style="shape=module;align=left;spacingLeft=20;align=center;verticalAlign=top;" parent="A0845nAOBM2mKrXy-4zn-1" vertex="1">
                    &#xa;
                    <mxGeometry x="250" y="155" width="100" height="50" as="geometry"/>
                    &#xa;
                </mxCell>
                &#xa;
                <mxCell id="7-Hv_RHjKqpD1DXGuA2B-5" value="" style="group" parent="A0845nAOBM2mKrXy-4zn-1" vertex="1" connectable="0">
                    &#xa;
                    <mxGeometry x="40" y="80" width="120" height="100" as="geometry"/>
                    &#xa;
                </mxCell>
                &#xa;
                <mxCell id="KLTtloW_Var81aSJ7tfG-0" value="admin" style="shape=folder;fontStyle=1;spacingTop=10;tabWidth=40;tabHeight=14;tabPosition=left;html=1;labelPosition=center;verticalLabelPosition=top;align=center;verticalAlign=bottom;" parent="7-Hv_RHjKqpD1DXGuA2B-5" vertex="1">
                    &#xa;
                    <mxGeometry width="120" height="90" as="geometry"/>
                    &#xa;
                </mxCell>
                &#xa;
                <mxCell id="KLTtloW_Var81aSJ7tfG-1" value="portainer" style="shape=module;align=left;spacingLeft=20;align=center;verticalAlign=top;" parent="7-Hv_RHjKqpD1DXGuA2B-5" vertex="1">
                    &#xa;
                    <mxGeometry x="10" y="30" width="100" height="50" as="geometry"/>
                    &#xa;
                </mxCell>
                &#xa;
                <mxCell id="Nw97U3U3IIv7l3csOgCR-0" value="datastore" style="shape=folder;fontStyle=1;spacingTop=10;tabWidth=40;tabHeight=14;tabPosition=left;html=1;labelPosition=center;verticalLabelPosition=top;align=center;verticalAlign=bottom;" parent="A0845nAOBM2mKrXy-4zn-1" vertex="1">
                    &#xa;
                    <mxGeometry x="560" y="80" width="150" height="200" as="geometry"/>
                    &#xa;
                </mxCell>
                &#xa;
                <mxCell id="Nw97U3U3IIv7l3csOgCR-2" value="ds1&#10;ds1-opendj&#10;ds1-389ds" style="shape=module;align=left;spacingLeft=20;align=center;verticalAlign=top;" parent="A0845nAOBM2mKrXy-4zn-1" vertex="1">
                    &#xa;
                    <mxGeometry x="585" y="110" width="100" height="50" as="geometry"/>
                    &#xa;
                </mxCell>
                &#xa;
                <mxCell id="Nw97U3U3IIv7l3csOgCR-3" value="ds2&#10;ds2-opendj&#10;ds2-389ds" style="shape=module;align=left;spacingLeft=20;align=center;verticalAlign=top;" parent="A0845nAOBM2mKrXy-4zn-1" vertex="1">
                    &#xa;
                    <mxGeometry x="585" y="210" width="100" height="50" as="geometry"/>
                    &#xa;
                </mxCell>
                &#xa;
                <mxCell id="iNnMeqCZ-GrOr7aLHcvG-0" value="" style="group" parent="A0845nAOBM2mKrXy-4zn-1" vertex="1" connectable="0">
                    &#xa;
                    <mxGeometry x="240" y="320" width="120" height="100" as="geometry"/>
                    &#xa;
                </mxCell>
                &#xa;
                <mxCell id="iNnMeqCZ-GrOr7aLHcvG-1" value="shared" style="shape=folder;fontStyle=1;spacingTop=10;tabWidth=40;tabHeight=14;tabPosition=left;html=1;labelPosition=center;verticalLabelPosition=top;align=center;verticalAlign=bottom;" parent="iNnMeqCZ-GrOr7aLHcvG-0" vertex="1">
                    &#xa;
                    <mxGeometry width="120" height="90" as="geometry"/>
                    &#xa;
                </mxCell>
                &#xa;
                <mxCell id="iNnMeqCZ-GrOr7aLHcvG-2" value="cert&#10;logs" style="shape=module;align=left;spacingLeft=20;align=center;verticalAlign=top;" parent="iNnMeqCZ-GrOr7aLHcvG-0" vertex="1">
                    &#xa;
                    <mxGeometry x="10" y="30" width="100" height="50" as="geometry"/>
                    &#xa;
                </mxCell>
                &#xa;
                <mxCell id="iNnMeqCZ-GrOr7aLHcvG-4" value="" style="endArrow=classic;startArrow=classic;html=1;entryX=0.5;entryY=1;entryDx=0;entryDy=0;exitX=0.5;exitY=0;exitDx=0;exitDy=0;" parent="A0845nAOBM2mKrXy-4zn-1" source="Nw97U3U3IIv7l3csOgCR-3" target="Nw97U3U3IIv7l3csOgCR-2" edge="1">
                    &#xa;
                    <mxGeometry width="50" height="50" relative="1" as="geometry">
                        &#xa;
                        <mxPoint x="470" y="480" as="sourcePoint"/>
                        &#xa;
                        <mxPoint x="520" y="430" as="targetPoint"/>
                        &#xa;
                    </mxGeometry>
                    &#xa;
                </mxCell>
                &#xa;
                <mxCell id="iNnMeqCZ-GrOr7aLHcvG-5" value="" style="endArrow=classic;startArrow=classic;html=1;" parent="A0845nAOBM2mKrXy-4zn-1" source="7-Hv_RHjKqpD1DXGuA2B-2" target="Nw97U3U3IIv7l3csOgCR-2" edge="1">
                    &#xa;
                    <mxGeometry width="50" height="50" relative="1" as="geometry">
                        &#xa;
                        <mxPoint x="430" y="480" as="sourcePoint"/>
                        &#xa;
                        <mxPoint x="480" y="430" as="targetPoint"/>
                        &#xa;
                    </mxGeometry>
                    &#xa;
                </mxCell>
                &#xa;
                <mxCell id="iNnMeqCZ-GrOr7aLHcvG-6" value="" style="endArrow=classic;startArrow=classic;html=1;" parent="A0845nAOBM2mKrXy-4zn-1" source="7-Hv_RHjKqpD1DXGuA2B-2" target="Nw97U3U3IIv7l3csOgCR-3" edge="1">
                    &#xa;
                    <mxGeometry width="50" height="50" relative="1" as="geometry">
                        &#xa;
                        <mxPoint x="474" y="135" as="sourcePoint"/>
                        &#xa;
                        <mxPoint x="545" y="135" as="targetPoint"/>
                        &#xa;
                    </mxGeometry>
                    &#xa;
                </mxCell>
                &#xa;
                <mxCell id="IC18AiuTaDbCoOcbCe3b-0" value="" style="endArrow=classic;startArrow=classic;html=1;" parent="A0845nAOBM2mKrXy-4zn-1" source="7-Hv_RHjKqpD1DXGuA2B-3" target="Nw97U3U3IIv7l3csOgCR-2" edge="1">
                    &#xa;
                    <mxGeometry width="50" height="50" relative="1" as="geometry">
                        &#xa;
                        <mxPoint x="466.75" y="160" as="sourcePoint"/>
                        &#xa;
                        <mxPoint x="552.25" y="210" as="targetPoint"/>
                        &#xa;
                    </mxGeometry>
                    &#xa;
                </mxCell>
                &#xa;
                <mxCell id="IC18AiuTaDbCoOcbCe3b-1" value="" style="endArrow=classic;startArrow=classic;html=1;" parent="A0845nAOBM2mKrXy-4zn-1" source="7-Hv_RHjKqpD1DXGuA2B-3" target="Nw97U3U3IIv7l3csOgCR-3" edge="1">
                    &#xa;
                    <mxGeometry width="50" height="50" relative="1" as="geometry">
                        &#xa;
                        <mxPoint x="474" y="135" as="sourcePoint"/>
                        &#xa;
                        <mxPoint x="545" y="135" as="targetPoint"/>
                        &#xa;
                    </mxGeometry>
                    &#xa;
                </mxCell>
                &#xa;
                <mxCell id="IC18AiuTaDbCoOcbCe3b-2" value="" style="endArrow=classic;startArrow=classic;html=1;" parent="A0845nAOBM2mKrXy-4zn-1" source="7-Hv_RHjKqpD1DXGuA2B-4" target="7-Hv_RHjKqpD1DXGuA2B-2" edge="1">
                    &#xa;
                    <mxGeometry width="50" height="50" relative="1" as="geometry">
                        &#xa;
                        <mxPoint x="390" y="480" as="sourcePoint"/>
                        &#xa;
                        <mxPoint x="440" y="430" as="targetPoint"/>
                        &#xa;
                    </mxGeometry>
                    &#xa;
                </mxCell>
                &#xa;
                <mxCell id="IC18AiuTaDbCoOcbCe3b-3" value="" style="endArrow=classic;startArrow=classic;html=1;" parent="A0845nAOBM2mKrXy-4zn-1" source="7-Hv_RHjKqpD1DXGuA2B-4" target="7-Hv_RHjKqpD1DXGuA2B-3" edge="1">
                    &#xa;
                    <mxGeometry width="50" height="50" relative="1" as="geometry">
                        &#xa;
                        <mxPoint x="350" y="161.85483870967755" as="sourcePoint"/>
                        &#xa;
                        <mxPoint x="374" y="153.14516129032268" as="targetPoint"/>
                        &#xa;
                    </mxGeometry>
                    &#xa;
                </mxCell>
                &#xa;
                <mxCell id="9OUM3U0saZanK0JgKwam-0" value="" style="group" parent="A0845nAOBM2mKrXy-4zn-1" vertex="1" connectable="0">
                    &#xa;
                    <mxGeometry x="40" y="320" width="120" height="100" as="geometry"/>
                    &#xa;
                </mxCell>
                &#xa;
                <mxCell id="9OUM3U0saZanK0JgKwam-1" value="test" style="shape=folder;fontStyle=1;spacingTop=10;tabWidth=40;tabHeight=14;tabPosition=left;html=1;labelPosition=center;verticalLabelPosition=top;align=center;verticalAlign=bottom;" parent="9OUM3U0saZanK0JgKwam-0" vertex="1">
                    &#xa;
                    <mxGeometry width="120" height="90" as="geometry"/>
                    &#xa;
                </mxCell>
                &#xa;
                <mxCell id="9OUM3U0saZanK0JgKwam-2" value="selenium" style="shape=module;align=left;spacingLeft=20;align=center;verticalAlign=top;" parent="9OUM3U0saZanK0JgKwam-0" vertex="1">
                    &#xa;
                    <mxGeometry x="10" y="30" width="100" height="50" as="geometry"/>
                    &#xa;
                </mxCell>
                &#xa;
            </root>
            &#xa;
        </mxGraphModel>
        &#xa;
    </diagram>
</mxfile>